<?xml version="1.0" encoding="UTF-8"?><svg id="Layer_1" xmlns="http://www.w3.org/2000/svg" viewBox="0 0 206.07 226.81"><defs><style>.cls-1{fill:#542d8e;}</style></defs><path class="cls-1" d="m62.5,91.49c-2.5-.3-4.8-.5-7.1-.9-2.3-.4-4-2.1-4.1-4.4-.1-4.1-1.6-7.8-3.1-11.5-1.8-4.6-4.4-8.9-7.6-12.7-.7-.8-2.4-1-3.6-1.3-3-.6-6.1-1.2-9.1-1.6-2.8-.4-5.5-.7-8.3-1-3.7-.4-7.5-.9-11.2-1.3-1.8-.2-3.6,0-5.4,0-1.9,0-3-1-3-2.6,0-1.4,1.1-2.5,2.8-2.3,4.4.4,8.9.9,13.3,1.5,4.9.8,9.8,1.7,14.6,2.7,3.1.6,6.2,1.5,9.4,2.3.4.1.9.1,1.3-.1,1.8-1,3.3-.9,4.6.9,1.8,2.5,3.8,5,5.1,7.8,1.9,3.8,3.2,7.9,4.8,11.9.2.6.9,1.3,1.4,1.4,5.1.8,10.1.6,15-.9,1.6-.5,2.4-2.3,2.3-4.5s-.3-4.3-.3-6.5c0-.9-.4-1.2-1.1-1.4-4.9-1.6-9.5-4-13.2-7.7-2.6-2.6-4.9-5.5-7.1-8.4-1.2-1.6-1.9-3.5-.6-5.6.3-.5,0-1.7-.3-2.4-1.1-2.8-1.9-5.6-1.6-8.6.2-2.8,1-5.6,1.7-8.4.3-1,.2-1.7-.5-2.5-4.4-5.1-9.2-9.9-14.9-13.5-2.2-1.4-4.6-2.3-7-3.3-1.4-.6-2.3-1.9-1.9-3.4.4-1.3,1.5-1.8,3-1.7,3.9.5,6.8,2.8,9.7,5.1,5.9,4.7,10.9,10.2,14.9,16.7,4.1,1.6,2.2,4.8,1.5,7.3-1.1,3.7-.2,7.2.6,10.7.1.4.8.7,1.2,1,.7.5,1.7.7,2.2,1.4,2.5,3.4,4.7,7.1,8.3,9.6,2.2,1.5,4.5,2.9,6.6,4.2,1.7-2.5,3.2-4.7,4.7-6.9-1.5-.9-3.3-1.7-4.9-3-3.6-2.9-5.1-6.7-3.9-11.4.1-.4,0-1-.2-1.4-1.1-2.7-.4-5.2.9-7.5,2.6-4.5,6.3-7.8,11.1-9.8,2.4-1,5.1-1.3,8.1-2.1-1.2-2.3-2.4-4.8-3.9-7.2-.8-1.4-2-2.6-3-3.7-1-1.1-1.1-2.1-.2-3.3s2.2-1.6,3.2-.7c1.6,1.4,3.1,3,4.2,4.8,1.2,1.9,1.9,4.2,2.8,6.3.3.6.6,1,1.3.5,4.6-3,9.2-2.4,13.8-.1.2.1.4.2.8.5.7-1.7,1.3-3.4,2.2-4.9,1.4-2.3,2.9-4.5,4.6-6.6,1-1.2,2.8-1.2,3.9-.1,1,1,.9,2.4-.2,3.6-3,3.4-5.1,7.4-6.6,11.2,3,.8,6.1,1.1,8.8,2.3,5.4,2.4,9.6,6.2,11.2,12.1.4,1.4-.1,3-.1,4.5v4.4c0,5.2-2.9,9.2-7.9,10.8-.1,0-.2.1-.1,0,1.7,2.2,3.4,4.4,5.4,6.9,1.8-1.1,4.2-2.2,5.9-3.9,2.8-2.8,5.2-6.2,7.8-9.2.8-.9,1.9-1.4,3-1.9,1.7-4.7,1.8-9.5.1-14.4-.3-.8.1-2.6.7-2.9,2.2-1.2,3-3.3,4.4-5,4.4-5.8,9.4-11,15.4-15.2,2.3-1.5,4.6-2.9,7.5-2.7,1.4.1,1.9.8,2.1,1.9.2,1.1,0,2.2-1.3,2.6-7.7,2.6-13.6,7.9-19.1,13.6-1.6,1.6-3,3.3-4.5,4.8,2.2,6.2,2.8,12.3.5,18.4-.4,1.1-.5,2,0,3.2.6,1.6.3,3.3-.7,4.8-2.8,4-5.8,8-10,10.7-3.2,2-6.5,3.7-10.1,5.7-.1,2.6-.3,5.8-.4,9,0,1.1,1.7,3.3,2.8,3.7,3,1,6.1.8,9.1.6,1.6-.1,3.3-.5,5.1-.7,1-4.9,3.2-9.5,5.7-14,1.3-2.4,3-4.7,4.7-6.9,1-1.3,2.3-1.6,4.2-.9,1.3.5,3-.1,4.6-.5,6.4-1.4,12.7-2.9,19.1-4.2,4.9-1,9.9-1.9,14.9-1.7,2.3.1,3,.8,2.7,3-.1,1-.7,1.6-1.8,1.7-3.6.2-7.2.3-10.8.7-5.4.6-10.8,1.5-16.2,2.2-2.9.4-5.7.9-8.6,1.3-2,.3-3.3,1.5-4.4,3.1-3.6,5-6.2,10.5-8.2,16.3-.5,1.3-.9,2.8-.8,4.2.1,5.1-2.7,6.4-6.8,6.7-1,.1-2,.1-3.3.2,1.5,1.8,2.8,3.4,4,5,5.2,6.6,10.6,13.1,15.4,19.9,5.1,7.2,9.9,14.7,14.4,22.4,4.5,7.6,8.3,15.6,11.3,23.9,2.2,6.2,3.6,12.5,4.6,19s1.6,13,1.2,19.6c-.3,6.6-1.2,13.2-4.7,19-3.3,5.5-8.7,7.8-15.1,6.7-5.2-.9-9.5-3.6-13.8-6.4-5.5-3.6-10.9-7.5-16-11.6-4.2-3.4-7.9-7.4-11.6-11.3-6.2-6.4-11.5-13.6-15.7-21.5-3.7-6.8-6.8-13.8-7.8-21.6-.5-4-1.1-8.1-1-12.1.2-6.9,2.2-13.6,4.6-20.1,2.3-5.9,4.3-11.9,6.3-17.9-11.9,10.2-25.5,8.6-35,0,.4,1.6.8,3.2,1.3,4.8,2.6,7.5,5.4,14.9,7.8,22.5,1,3.3,1.2,7,1.5,10.5.6,8.6-1.1,16.9-4.3,24.9-3,7.5-7,14.3-11.8,20.8-4.5,6.1-9.6,11.5-15.1,16.7-6.9,6.6-14.6,12.3-22.8,17.2-3.3,1.9-6.7,3.8-10.5,4.8-8.4,2.1-13.7-1.3-17.3-8.2-2.1-4.1-3.2-8.5-3.4-13.1-.2-4.2-.6-8.4-.3-12.6.4-5.5,1.1-11.1,2.1-16.5.8-4.5,1.9-8.9,3.5-13.2,2.2-5.7,4.8-11.3,7.5-16.8,5.4-10.9,11.9-21.2,19.2-30.9,4.9-6.6,10-13,15.1-19.5,1.5-1.4,2.7-2.6,3.8-3.9Zm107.4,67.5c-3,1.7-5.7,3.2-8.4,4.8-.3.2-.6.9-.6,1.2.9,4.1,2,8.2,2.8,12.3,1.6,7.8,3,15.7,4.5,23.6,7.3,2,14.6,4.4,21.3,8.8.2-.7.5-1.2.5-1.7.3-2.8.4-5.7.7-8.5.2-1.3,0-2.4-.5-3.5-.7-1.6-1.4-3.2-2.2-4.7-4.1-7.9-8.2-15.8-12.5-23.6-1.7-3-3.7-5.8-5.6-8.7ZM18.2,209.79c6.9-4.4,14.2-7.1,21.3-9,2.5-12.4,4.9-24.5,7.4-36.7-2.8-1.6-5.7-3.3-8.8-5-.3.4-.6.8-.9,1.2-6.7,9.7-12.1,20-17,30.6-1.5,3.3-3.8,6.4-3.3,10.3.2,1.2.2,2.4.4,3.5.2,1.7.5,3.3.9,5.1Zm111.8-119.4c-1.4,2.9-3,5.4-2.4,8.7.2.8-.4,1.9-.1,2.6,2.3,5.9,4.8,11.7,7.1,17.6,4.8,12.2,7.9,24.8,8.7,37.8.3,5-.4,10.1-.5,15.1,0,.4.6,1.2,1,1.2,5.2.1,10.5.1,15.8.1-6.6-28.8-16.2-56.5-29.6-83.1Zm-65,83c-.3-3.3-.7-6.3-.7-9.3,0-3.5.3-7,.6-10.5.4-4.1.8-8.2,1.7-12.2,2.7-12,6.7-23.7,11.9-34.9,2.5-5.4,2.8-10.6-.6-15.9-13.3,26.5-23.1,54.1-29.4,82.8h16.5Zm9.6-83.9c-2.1.7-4.4.8-5.7,2.8-.4.5-.8,1.1-1.2,1.6-3.7,4.5-7.5,9-11.1,13.7-3.8,4.9-7.5,9.8-11.2,14.9-2.8,3.9-5.3,7.9-7.9,11.9,2.8,1.8,5.5,3.4,8.2,5.2q2.3,1.5,4-.4c.1-.2.4-.3.5-.4,3.4-3.9,7.2-7.4,8.8-12.7,2-6.4,4.8-12.6,7.4-18.7,2.6-6.1,5.4-11.9,8.2-17.9Zm95.8,44.7c-3.2-4.8-6.2-9.5-9.5-14-3.9-5.4-8-10.6-12.1-15.9-2.6-3.4-5.5-6.7-8.1-10.1-1.8-2.4-3.8-4.3-7-4,2.1,4.5,4.4,9,6.3,13.7,3.4,8.1,6.6,16.3,9.9,24.5.7,1.7,1.4,3.3,2.7,4.6,2.2,2.2,4.2,4.6,6.2,6.9.7.8,1.2.8,2.1.2,3.1-1.8,6.2-3.8,9.5-5.9Zm-105.2,42.6h-17.6c-1.1,5.2-2.1,10.2-3.1,15.3,1.5,1.1,2.9,2.3,4.4,3.5,3,2.4,6,4.8,9,7.1.4.3,1.3.4,1.6.1,3-2.8,5.9-5.7,8.9-8.5,1-.9.9-1.7.6-2.8-1.3-5-2.6-9.9-3.8-14.7Zm95.1.1h-17c-.4,0-1.1.6-1.2,1.1-1.2,4.7-2.3,9.3-3.4,14-.1.4-.2,1.2.1,1.4,3.2,3.1,6.4,6.3,9.7,9.3.3.2,1.1.2,1.5-.1,4.1-3.2,8.2-6.4,12.2-9.7.5-.4,1-1.5.8-2.2-.8-4.5-1.8-9.1-2.7-13.8Zm-116.4,18.8c-.4,2.3-.8,4.2-1,6.2-.1.9-.3,1.4-1.3,1.7-4.7,1.5-9.4,3-14,4.8-3,1.2-5.8,2.9-8.7,4.5.9,1.7,1.5,3,2.2,4.2,1.7,3,5.6,5.1,8.4,4.3,2.9-.8,5.8-1.8,8.3-3.3,4.7-2.8,9.3-5.9,13.8-9,1.6-1.1,3-2.4,4.5-3.6-4.1-3.3-8-6.4-12.2-9.8Zm107.7,9.9c1.1.8,2,1.6,3,2.4,6.1,4.8,12.5,9.1,19.6,12.4,1.4.7,3.1,1.1,4.6,1.2,5.1.3,8.3-3.7,9.7-7.9.1-.3-.2-.9-.5-1-3.9-2-7.8-4.1-11.8-5.8-3.6-1.5-7.4-2.4-11-3.5-.4-2.5-.9-4.9-1.3-7.5-4.2,3.2-8.3,6.4-12.3,9.7Zm-60.8-103.9c-1.1-3.7-2.6-7.4-3.4-11.2-.9-4.3-1.5-8.7-1.8-13.1-.2-2.8.1-5.8.4-8.6.4-4.1,2.1-7.5,5.6-9.9,2.8-1.9,6-2.7,9.2-2.8,6.5-.1,13.1-.8,19.6,1.2,1.6.5,3.3.9,5.3,1.5-1.8-3-4.2-4.7-7.1-5.7-3.8-1.4-7.8-1.7-11.9-1.9-2.9-.1-5.8.2-8.7.2-3.2.1-6.5.5-9.3,2-2,1-3.9,2.4-5.4,4-2.8,3.3-3.5,7.6-3.6,11.8,0,3.3.4,6.6.6,9.9.2,4.1,1.2,8,2.7,11.8,1.8,4.2,4.3,8,7.8,10.8Zm-10.2,77.1c-2.1-4.3-4.2-8.1-5.9-12.1-1.5-3.5-3-7.2-2.9-11.1.1-1.8.4-3.6.7-5.4.5-3.4.9-6.9,1.7-10.2,2-8.9,4.9-17.6,8.2-26.1,1-2.4-.4-4-.8-5.9-1.1,2.1-2.1,4.3-2.9,6.5-2,5.5-4.1,10.9-5.8,16.5-1.4,4.5-2.6,9.2-3.4,13.9-.9,5.4-1.6,10.9-1.9,16.3-.2,3.3.2,6.7.6,10,.6,4.6,1.4,9.1,2.3,13.7.3,1.7.9,3.3,1.4,5,.2.1.3.1.5.2,2.8-4,5.6-7.8,8.2-11.3Zm54.8,11.1c.2-.1.4-.2.6-.2.4-1.3.8-2.6,1.1-3.9,1.6-6.1,2.5-12.3,3-18.6.5-7.4-.1-14.8-1.7-22.1-1.2-5.5-2.3-10.9-4-16.3-1.7-5.5-3.9-10.9-5.9-16.3-.6-1.7-1.4-3.3-2.3-5.2-.4,1.3-.8,2.1-.9,3-.1,1.1-.2,2.2.1,3.2.6,2.2,1.6,4.3,2.3,6.5,1.6,5,3.5,9.9,4.7,15,1.4,5.7,2.3,11.5,3.3,17.3.3,1.9.6,3.9.1,5.8-1.6,7-4.2,13.6-8.2,19.6-.2.3-.3.9-.2,1.1,2.7,3.7,5.4,7.4,8,11.1Zm-89.5-46.4c-3-1.9-5.8-3.7-8.6-5.5-1-.6-1.7-.8-2.3.5-.8,1.7-2,3.3-2.8,5.1-3.3,6.9-6.8,13.8-9.7,20.9-1.9,4.8-2.8,10-4,15-.6,2.8-.9,5.8-1.3,8.7,8-16,17-31.1,28.7-44.7Zm116.1,0c11.7,13.5,20.6,28.5,28.3,44.4-.2-2.3-.5-4.6-.9-6.8-.8-4-1.6-8.1-2.6-12.1-1.6-6.2-4.2-11.9-7.1-17.6-2.2-4.4-4.7-8.7-7-13.1-.4-.8-.8-1-1.6-.5-3,1.8-6,3.7-9.1,5.7Zm-7.8-4.1c-.1.1-.3.2-.4.2,2,7,4.1,14.1,6.1,21.2,2.6-1.5,5.2-3,8.1-4.7-4.6-5.6-9.2-11.2-13.8-16.7Zm-114.4,16.8c3,1.7,5.5,3.2,8.1,4.6,2.1-7.2,4.1-14.2,6.1-21.2-.1-.1-.2-.1-.3-.2-4.7,5.6-9.2,11.1-13.9,16.8ZM88.8,21.09c-4-1-10.2,3-12.3,7.4-.8,1.7-.9,3.5-.1,5.4.4-.3.6-.4.7-.5,3-3.2,6.5-5.7,10.9-6.9.3-.1.7-.7.7-1.1.2-1.5.1-2.9.1-4.3Zm39.9,13c1.3-3.8-.1-6.7-2.6-9.1-2.5-2.4-5.3-4-9-4,.1,2.1.3,3.9.4,5.8,4.5,1.1,8,3.7,11.2,7.3Zm-26.3-19.3c-5.1-.8-8.9,6.1-8.1,11.3h3c.4-4.4,1.1-8.5,5.1-11.3Zm-11.1,87.4s.1,0,0,0c.1-.1,0-.2,0-.2,0,.1-.1.1,0,.2q-.1,0,0,0Z"/><path class="cls-1" d="m114.3,113.99c-2.7,6.8-5.3,13.7-6.7,20.9-.7,3.7-1.1,7.6-1,11.4.2,5.8,1.2,11.5,2.9,17,2.6,8,6.3,15.5,10.9,22.7-4.2,3.8-8.6,7.4-14.3,8.6-3.2.6-6.4.1-9.2-1.6-3.3-2.1-6.4-4.4-9.7-6.8,15.5-23.2,18.4-47.1,5.7-72.5,1.2.3,1.9.5,2.5.7,5.2,2.1,10.5,2,15.8.5,1-.3,1.9-.7,2.9-1,.1-.1.2,0,.2.1Z"/></svg>