<?xml version="1.0" encoding="UTF-8"?><svg id="Layer_1" xmlns="http://www.w3.org/2000/svg" viewBox="0 0 206.97 228.25"><defs><style>.cls-1{fill:#542d8e;}.cls-2,.cls-3{fill:none;}.cls-3{stroke:#552e8e;stroke-linecap:round;stroke-linejoin:round;stroke-width:1.6px;}</style></defs><path class="cls-3" d="m120.1,57.77c1.6.5,3.3.9,5.3,1.5-1.8-3-4.2-4.7-7.1-5.7-3.8-1.4-7.8-1.7-11.9-1.9-1.2-.1-2.3,0-3.5,0v4.8c5.8-.1,11.6-.5,17.2,1.3Z"/><path class="cls-3" d="m162.8,191.27c-.8-4.6-1.8-9.1-2.8-13.9h-17c-.4,0-1.1.6-1.2,1.1-1.2,4.7-2.3,9.3-3.4,14-.1.4-.2,1.2.1,1.4,3.2,3.1,6.4,6.3,9.7,9.3.3.2,1.1.2,1.5-.1,4.1-3.2,8.2-6.4,12.2-9.7.6-.4,1.1-1.5.9-2.1Z"/><path class="cls-3" d="m154.1,139.87c-.1.1-.3.2-.4.2,2,7,4.1,14.1,6.1,21.2,2.6-1.5,5.2-3,8.1-4.7-4.7-5.6-9.2-11.2-13.8-16.7Z"/><path class="cls-3" d="m149.7,128.97c.7,1.7,1.4,3.3,2.7,4.6,2.2,2.2,4.2,4.6,6.2,6.9.7.8,1.2.8,2.1.2,3-2,6.1-4,9.4-6.1-3.2-4.8-6.2-9.5-9.5-14-3.9-5.4-8-10.6-12.1-15.9-2.6-3.4-5.5-6.7-8.1-10.1-1.8-2.4-3.8-4.3-7-4,2.1,4.5,4.4,9,6.3,13.7,3.6,8.3,6.8,16.5,10,24.7Z"/><path class="cls-3" d="m127.5,120.47c1.6,5,3.5,9.9,4.7,15,1.4,5.7,2.3,11.5,3.3,17.3.3,1.9.6,3.9.1,5.8-1.6,7-4.2,13.6-8.2,19.6-.2.3-.3.9-.2,1.1,2.6,3.7,5.3,7.4,8,11.1.2-.1.4-.2.6-.2.4-1.3.8-2.6,1.1-3.9,1.6-6.1,2.5-12.3,3-18.6.5-7.4-.1-14.8-1.7-22.1-1.2-5.5-2.3-10.9-4-16.3-1.7-5.5-3.9-10.9-5.9-16.3-.6-1.7-1.4-3.3-2.3-5.2-.4,1.3-.8,2.1-.9,3-.1,1.1-.2,2.2.1,3.2.7,2.2,1.6,4.3,2.3,6.5Z"/><path class="cls-3" d="m127.3,102.17c2.3,5.9,4.8,11.7,7.1,17.6,4.8,12.2,7.9,24.8,8.7,37.8.3,5-.4,10.1-.5,15.1,0,.4.6,1.2,1,1.2,5.2.1,10.5.1,15.8.1-6.5-28.9-16.1-56.6-29.5-83.2-1.4,2.9-3,5.4-2.4,8.7.1,1-.4,2-.2,2.7Z"/><path class="cls-3" d="m128.5,34.57c1.3-3.8-.1-6.7-2.6-9.1-2.5-2.4-5.3-4-9-4,.1,2.1.3,3.9.4,5.8,4.5,1.1,8.1,3.7,11.2,7.3Z"/><path class="cls-3" d="m187.9,213.07c-3.9-2-7.8-4.1-11.8-5.8-3.6-1.5-7.4-2.4-11-3.5-.4-2.5-.9-4.9-1.3-7.5-4.2,3.3-8.2,6.5-12.3,9.8,1.1.8,2,1.6,3,2.4,6.1,4.8,12.5,9.1,19.6,12.4,1.4.7,3.1,1.1,4.6,1.2,5.1.3,8.3-3.7,9.7-7.9,0-.4-.3-1-.5-1.1Z"/><path class="cls-3" d="m187.8,191.67c-4.1-7.9-8.2-15.8-12.5-23.6-1.6-3-3.7-5.7-5.6-8.7-3,1.7-5.7,3.2-8.4,4.8-.3.2-.6.9-.6,1.2.9,4.1,2,8.2,2.8,12.3,1.6,7.8,3,15.7,4.5,23.6,7.3,2,14.6,4.4,21.3,8.8.2-.7.5-1.2.5-1.7.3-2.8.4-5.7.7-8.5.2-1.3,0-2.4-.5-3.5-.8-1.5-1.4-3.1-2.2-4.7Z"/><path class="cls-3" d="m190.1,188.37c-.2-2.3-.5-4.6-.9-6.8-.8-4-1.6-8.1-2.6-12.1-1.6-6.2-4.2-11.9-7.1-17.6-2.2-4.4-4.7-8.7-7-13.1-.4-.8-.8-1-1.6-.5-3,1.9-5.9,3.7-9.1,5.7,11.7,13.5,20.6,28.5,28.3,44.4Z"/><path class="cls-3" d="m121.3,104.67c-2,6-4,12-6.3,17.9-2.5,6.5-4.4,13.1-4.6,20.1-.1,4,.4,8.1,1,12.1,1,7.7,4.1,14.8,7.8,21.6,4.3,7.9,9.5,15.1,15.7,21.5,3.7,3.9,7.5,7.8,11.6,11.3,5.1,4.2,10.5,8,16,11.6,4.2,2.8,8.6,5.5,13.8,6.4,6.4,1.1,11.7-1.1,15.1-6.7,3.5-5.8,4.4-12.4,4.7-19s-.2-13.1-1.2-19.6-2.4-12.8-4.6-19c-3-8.3-6.8-16.3-11.3-23.9-4.5-7.6-9.3-15.1-14.4-22.4-4.8-6.8-10.3-13.3-15.4-19.9-1.3-1.6-2.6-3.2-4-5,1.3-.1,2.3-.2,3.3-.2,4.1-.3,6.9-1.6,6.8-6.7,0-1.4.4-2.9.8-4.2,2-5.8,4.7-11.3,8.2-16.3,1.1-1.6,2.4-2.8,4.4-3.1,2.9-.4,5.7-.9,8.6-1.3,5.4-.8,10.8-1.6,16.2-2.2,3.6-.4,7.2-.5,10.8-.7,1.1-.1,1.7-.6,1.8-1.7.3-2.2-.4-2.9-2.7-3-5.1-.2-10,.7-14.9,1.7-6.4,1.3-12.8,2.8-19.1,4.2-1.5.3-3.3,1-4.6.5-1.9-.7-3.1-.4-4.2.9-1.7,2.2-3.4,4.5-4.7,6.9-2.4,4.5-4.6,9.1-5.7,14-1.8.3-3.4.6-5.1.7-3.1.2-6.2.3-9.1-.6-1.2-.4-2.9-2.6-2.8-3.7.1-3.2.3-6.4.4-9,3.5-2,6.9-3.7,10.1-5.7,4.2-2.7,7.2-6.7,10-10.7,1-1.5,1.3-3.2.7-4.8-.5-1.2-.4-2.1,0-3.2,2.3-6.2,1.7-12.3-.5-18.4,1.5-1.6,2.9-3.2,4.5-4.8,5.5-5.7,11.4-11,19.1-13.6,1.3-.4,1.5-1.5,1.3-2.6-.2-1-.7-1.8-2.1-1.9-3-.2-5.3,1.1-7.5,2.7-6,4.1-11,9.4-15.4,15.2-1.3,1.7-2.2,3.9-4.4,5-.6.3-1,2.1-.7,2.9,1.6,4.9,1.6,9.7-.1,14.4-1.1.5-2.2,1.1-3,1.9-2.7,3-5,6.4-7.8,9.2-1.7,1.7-4.1,2.8-5.9,3.9-2-2.5-3.7-4.7-5.4-6.9-.1.1,0,0,.1,0,5-1.7,7.9-5.6,7.9-10.8v-4.4c0-1.5.5-3.1.1-4.5-1.6-5.9-5.9-9.7-11.2-12.1-2.7-1.2-5.8-1.5-8.8-2.3,1.6-3.8,3.6-7.8,6.6-11.2,1.1-1.2,1.2-2.6.2-3.6-1.1-1-2.9-1.1-3.9.1-1.7,2.1-3.2,4.3-4.6,6.6-.9,1.5-1.4,3.2-2.2,4.9-.4-.2-.6-.4-.8-.5-2.3-1.2-4.5-1.9-6.8-1.9v41.1c1.2,0,2.3-.1,3.5,0,4,.2,8,.5,11.9,1.9,2.9,1,5.2,2.7,7.1,5.7-2-.5-3.6-.9-5.3-1.5-5.6-1.8-11.4-1.5-17.1-1.3v55.2c5.9.1,12.2-2.1,18.1-7.2Zm27,98.5c-3.3-3-6.5-6.2-9.7-9.3-.2-.2-.2-.9-.1-1.4,1.1-4.7,2.2-9.4,3.4-14,.1-.4.8-1.1,1.2-1.1,5.6-.1,11.3,0,17,0,1,4.7,1.9,9.3,2.8,13.9.1.7-.3,1.7-.8,2.2-4,3.3-8.1,6.5-12.2,9.7-.5.2-1.4.3-1.6,0Zm11.5-41.8c-2.1-7.2-4.1-14.2-6.1-21.2.1-.1.3-.2.4-.2,4.6,5.5,9.1,11.1,13.9,16.8-3,1.6-5.5,3-8.2,4.6Zm18.8,60.6c-1.6-.1-3.2-.5-4.6-1.2-7.1-3.3-13.5-7.6-19.6-12.4-1-.8-2-1.5-3-2.4,4-3.2,8.1-6.4,12.3-9.8.4,2.6.9,5,1.3,7.5,3.6,1.1,7.4,2,11,3.5,4.1,1.7,7.9,3.8,11.8,5.8.3.1.6.7.5,1-1.4,4.3-4.6,8.3-9.7,8Zm11.9-22.1c-.3,2.8-.5,5.7-.7,8.5,0,.5-.3,1-.5,1.7-6.6-4.4-13.9-6.8-21.3-8.8-1.5-7.9-2.9-15.7-4.5-23.6-.8-4.1-1.9-8.2-2.8-12.3-.1-.4.2-1,.6-1.2,2.7-1.6,5.4-3.1,8.4-4.8,1.9,2.9,3.9,5.7,5.6,8.7,4.3,7.8,8.4,15.7,12.5,23.6.8,1.5,1.4,3.1,2.2,4.7.5,1.2.7,2.3.5,3.5Zm-18-61.1c2.3,4.4,4.8,8.7,7,13.1,2.9,5.6,5.5,11.4,7.1,17.6,1,4,1.8,8.1,2.6,12.1.4,2.2.7,4.5.9,6.8-7.7-15.9-16.6-30.9-28.3-44.4,3.1-2,6.1-3.8,9.1-5.7.8-.5,1.2-.3,1.6.5Zm-32-44c2.6,3.4,5.4,6.7,8.1,10.1,4.1,5.2,8.2,10.5,12.1,15.9,3.3,4.5,6.3,9.3,9.5,14-3.3,2.1-6.4,4.1-9.4,6.1-.9.6-1.4.5-2.1-.2-2-2.3-4-4.7-6.2-6.9-1.4-1.3-2.1-2.9-2.7-4.6-3.3-8.2-6.5-16.4-9.9-24.5-1.9-4.7-4.2-9.2-6.3-13.7,3.1-.5,5.1,1.4,6.9,3.8Zm-13.1,4.8c-.6-3.3,1.1-5.8,2.4-8.7,13.4,26.5,23,54.2,29.5,83.2-5.3,0-10.5,0-15.8-.1-.3,0-1-.8-1-1.2.1-5,.8-10.1.5-15.1-.7-13.1-3.9-25.7-8.7-37.8-2.3-5.9-4.8-11.7-7.1-17.6-.1-.8.4-1.8.2-2.7Zm-10-72.4c-.1-1.9-.3-3.7-.4-5.8,3.6,0,6.5,1.7,9,4,2.5,2.4,3.9,5.3,2.6,9.1-3.2-3.5-6.8-6.1-11.2-7.3Zm7.8,83.6c.1-.9.5-1.8.9-3,.8,1.9,1.6,3.6,2.3,5.2,2,5.4,4.2,10.8,5.9,16.3,1.6,5.3,2.8,10.8,4,16.3,1.6,7.3,2.1,14.6,1.7,22.1-.4,6.3-1.3,12.5-3,18.6-.3,1.3-.7,2.6-1.1,3.9-.2.1-.4.2-.6.2-2.7-3.7-5.3-7.4-8-11.1-.2-.2,0-.8.2-1.1,4.1-6,6.7-12.6,8.2-19.6.4-1.8.2-3.9-.1-5.8-1-5.8-1.9-11.6-3.3-17.3-1.3-5.1-3.1-10-4.7-15-.7-2.2-1.7-4.3-2.3-6.5-.4-1-.3-2.1-.1-3.2Z"/><path class="cls-3" d="m106,194.97c5.8-1.1,10.1-4.8,14.3-8.6-4.6-7.2-8.3-14.7-10.9-22.7-1.8-5.5-2.7-11.2-2.9-17-.1-3.8.2-7.7,1-11.4,1.4-7.2,4-14.1,6.7-20.9-.1-.1-.2-.1-.3-.2-1,.3-1.9.7-2.9,1-2.7.8-5.4,1.2-8.1,1.1v78.9c1.1.1,2.1,0,3.1-.2Z"/><path class="cls-2" d="m49.5,139.47c.1-.2.4-.3.5-.4,3.4-3.9,7.2-7.4,8.8-12.7,2-6.4,4.8-12.6,7.4-18.7,2.6-5.9,5.4-11.7,8.2-17.7-2.1.7-4.4.8-5.7,2.8-.4.5-.8,1.1-1.2,1.6-3.7,4.5-7.5,9-11.1,13.7-3.8,4.9-7.5,9.8-11.2,14.9-2.8,3.9-5.3,7.9-7.9,11.9,2.8,1.8,5.5,3.4,8.2,5.2,2.3,1.3,2.2,1.3,4-.6Z"/><path class="cls-2" d="m88.5,53.87c-2,1-3.9,2.4-5.4,4-2.8,3.3-3.5,7.6-3.6,11.8,0,3.3.4,6.6.6,9.9.2,4.1,1.2,8,2.7,11.8,1.7,4.2,4.3,8,7.8,10.8-1.1-3.7-2.6-7.4-3.4-11.2-.9-4.3-1.5-8.7-1.8-13.1-.2-2.8.1-5.8.4-8.6.4-4.1,2.1-7.5,5.6-9.9,2.8-1.9,6-2.7,9.2-2.8.8,0,1.6,0,2.4-.1v-4.8c-1.7.1-3.5.2-5.2.2-3.3.1-6.5.5-9.3,2Z"/><path class="cls-2" d="m91.2,102.57s0-.1-.1-.1l-.1.1c0,.1.1.1.2,0-.1.1,0,.1,0,0Z"/><path class="cls-2" d="m37.2,138.47c-1-.6-1.7-.8-2.3.5-.8,1.7-2,3.3-2.8,5.1-3.3,6.9-6.8,13.8-9.7,20.9-1.9,4.8-2.8,10-4,15-.6,2.8-.9,5.8-1.3,8.7,7.8-16,16.9-31.2,28.6-44.8-3-1.8-5.7-3.6-8.5-5.4Z"/><path class="cls-2" d="m48.2,173.87h16.6c-.3-3.3-.7-6.3-.7-9.3,0-3.5.3-7,.6-10.5.4-4.1.8-8.2,1.7-12.2,2.7-12,6.7-23.7,11.9-34.9,2.5-5.4,2.8-10.6-.6-15.9-13.4,26.5-23.2,54.1-29.5,82.8Z"/><path class="cls-2" d="m47.7,161.27c2.1-7.2,4.1-14.2,6.1-21.2-.1-.1-.2-.1-.3-.2-4.6,5.6-9.1,11.1-13.8,16.8,2.9,1.7,5.5,3.2,8,4.6Z"/><path class="cls-2" d="m76.4,28.87c-.8,1.7-.9,3.5-.1,5.4.4-.3.6-.4.7-.5,3-3.2,6.5-5.7,10.9-6.9.3-.1.7-.7.7-1.1.1-1.5,0-2.9,0-4.3-3.9-1-10.2,3-12.2,7.4Z"/><path class="cls-2" d="m94.1,26.57h3c.4-4.3,1.1-8.4,5.1-11.3-5.1-.9-8.9,6.1-8.1,11.3Z"/><path class="cls-2" d="m65,177.27h-17.6c-1.1,5.2-2.1,10.2-3.1,15.3,1.5,1.1,2.9,2.3,4.4,3.5,3,2.4,6,4.8,9,7.1.4.3,1.3.4,1.6.1,3-2.8,5.9-5.7,8.9-8.5,1-.9.9-1.7.6-2.8-1.2-5-2.5-9.9-3.8-14.7Z"/><path class="cls-2" d="m46.7,164.57c-2.8-1.6-5.7-3.3-8.8-5-.3.4-.6.8-.9,1.2-6.7,9.7-12.1,20-17,30.6-1.5,3.3-3.8,6.4-3.3,10.3.2,1.2.2,2.4.4,3.5.2,1.6.6,3.2.9,5,6.9-4.4,14.2-7.1,21.3-9,2.5-12.3,4.9-24.4,7.4-36.6Z"/><path class="cls-2" d="m72.7,131.27c-1.4,4.5-2.6,9.2-3.4,13.9-.9,5.4-1.6,10.9-1.9,16.3-.2,3.3.2,6.7.6,10,.6,4.6,1.4,9.1,2.3,13.7.3,1.7.9,3.3,1.4,5,.2.1.3.1.5.2,2.8-3.8,5.6-7.6,8.2-11-2.1-4.3-4.2-8.1-5.9-12.1-1.5-3.5-3-7.2-2.9-11.1.1-1.8.4-3.6.7-5.4.5-3.4.9-6.9,1.7-10.2,2-8.9,4.9-17.6,8.2-26.1,1-2.4-.4-4-.8-5.9-1.1,2.1-2.1,4.3-2.9,6.5-2,5.2-4.1,10.7-5.8,16.2Z"/><path class="cls-2" d="m42.7,202.37c-.1.9-.3,1.4-1.3,1.7-4.7,1.5-9.4,3-14,4.8-3,1.2-5.8,2.9-8.7,4.5.9,1.7,1.5,3,2.2,4.2,1.7,3,5.6,5.1,8.4,4.3,2.9-.8,5.8-1.8,8.3-3.3,4.7-2.8,9.3-5.9,13.8-9,1.6-1.1,3-2.4,4.5-3.6-4.2-3.3-8.1-6.4-12.3-9.8-.2,2.3-.6,4.2-.9,6.2Z"/><path class="cls-1" d="m96,12.57c-.8.5-1,.1-1.3-.5-.9-2.1-1.6-4.3-2.8-6.3-1.1-1.8-2.6-3.4-4.2-4.8-1.1-.9-2.3-.5-3.2.7-.9,1.2-.8,2.2.2,3.3,1.1,1.2,2.2,2.4,3,3.7,1.4,2.4,2.7,4.9,3.9,7.2-3,.7-5.7,1.1-8.1,2.1-4.8,1.9-8.5,5.3-11.1,9.8-1.3,2.3-2,4.8-.9,7.5.2.4.3,1,.2,1.4-1.1,4.6.3,8.4,3.9,11.4,1.5,1.2,3.4,2.1,4.9,3-1.5,2.2-3,4.4-4.7,6.9-2.1-1.3-4.4-2.7-6.6-4.2-3.6-2.5-5.8-6.2-8.3-9.6-.5-.6-1.4-.9-2.2-1.4-.4-.3-1.1-.6-1.2-1-.8-3.5-1.7-7-.6-10.7.7-2.5,2.6-5.6-1.5-7.3-4-6.4-9-11.9-14.9-16.7-2.9-2.3-5.8-4.6-9.7-5.1-1.5-.2-2.6.3-3,1.7-.4,1.5.4,2.8,1.9,3.4,2.4,1,4.9,1.9,7,3.3,5.7,3.6,10.5,8.4,14.9,13.5.7.8.8,1.5.5,2.5-.7,2.8-1.4,5.6-1.7,8.4-.3,2.9.5,5.8,1.6,8.6.3.7.7,1.9.3,2.4-1.3,2.1-.7,4,.6,5.6,2.2,2.9,4.5,5.8,7.1,8.4,3.7,3.7,8.3,6.1,13.2,7.7.7.2,1.1.5,1.1,1.4,0,2.2.2,4.3.3,6.5.1,2.2-.7,4-2.3,4.5-4.9,1.5-9.9,1.7-15,.9-.5-.1-1.2-.8-1.4-1.4-1.6-4-3-8-4.8-11.9-1.3-2.8-3.3-5.3-5.1-7.8-1.3-1.7-2.7-1.9-4.6-.9-.3.2-.9.2-1.3.1-3.1-.7-6.2-1.6-9.4-2.3-4.9-1-9.7-2-14.6-2.7-4.4-.7-8.9-1.1-13.3-1.5-1.7-.2-2.8.9-2.8,2.3,0,1.7,1.1,2.6,3,2.6,1.8,0,3.6-.1,5.4,0,3.7.3,7.5.8,11.2,1.3,2.8.3,5.5.6,8.3,1,3,.5,6.1,1,9.1,1.6,1.3.3,2.9.4,3.6,1.3,3.2,3.8,5.8,8.1,7.6,12.7,1.5,3.7,3,7.4,3.1,11.5,0,2.3,1.8,4,4.1,4.4,2.3.4,4.5.6,7.1.9-1.1,1.3-2.3,2.6-3.4,4-5,6.5-10.1,13-15.1,19.5-7.3,9.7-13.8,20-19.2,30.9-2.7,5.5-5.3,11.1-7.5,16.8-1.6,4.2-2.7,8.7-3.5,13.2-1,5.5-1.7,11-2.1,16.5-.3,4.2.1,8.4.3,12.6.2,4.6,1.2,9,3.4,13.1,3.6,6.9,8.8,10.3,17.3,8.2,3.8-1,7.1-2.8,10.5-4.8,8.3-4.8,15.9-10.6,22.8-17.2,5.4-5.2,10.6-10.6,15.1-16.7,4.7-6.5,8.8-13.3,11.8-20.8,3.2-8,4.9-16.3,4.3-24.9-.3-3.5-.5-7.1-1.5-10.5-2.3-7.6-5.2-15-7.8-22.5-.5-1.5-.9-3.2-1.3-4.8,4.8,4.3,10.6,6.9,16.7,7.1v-55.1c-.8,0-1.6.1-2.4.1-3.2.1-6.4.9-9.2,2.8-3.4,2.4-5.1,5.8-5.6,9.9-.3,2.9-.6,5.8-.4,8.6.4,4.4.9,8.8,1.8,13.1.8,3.8,2.2,7.5,3.4,11.2-3.5-2.8-6-6.6-7.8-10.8-1.5-3.8-2.5-7.7-2.7-11.8-.2-3.3-.7-6.6-.6-9.9.1-4.2.8-8.5,3.6-11.8,1.4-1.7,3.4-3,5.4-4,2.9-1.5,6.1-1.9,9.3-2,1.7,0,3.5-.1,5.2-.2V10.57c-2.7-.1-5,.5-7.3,2Zm-4.9,89.9l.1.1-.1.1s-.1,0,0-.2c-.1.1,0,.1,0,0Zm-45.8,20.3c3.6-5,7.3-10,11.2-14.9,3.6-4.6,7.4-9.1,11.1-13.7.4-.5.8-1,1.2-1.6,1.3-2,3.6-2.1,5.7-2.8-2.8,6-5.6,11.8-8.2,17.7-2.7,6.2-5.5,12.3-7.4,18.7-1.6,5.3-5.3,8.8-8.8,12.7-.1.2-.4.3-.5.4-1.8,1.9-1.7,1.9-4,.4-2.6-1.7-5.3-3.4-8.2-5.2,2.6-3.7,5.1-7.8,7.9-11.7Zm8.5,17.3c-2,7-4,14-6.1,21.2-2.5-1.4-5.1-2.9-8.1-4.6,4.7-5.7,9.3-11.3,13.8-16.8.2.1.3.1.4.2Zm-35.4,40c1.2-5.1,2.1-10.3,4-15,2.8-7.1,6.4-14,9.7-20.9.8-1.7,2-3.3,2.8-5.1.6-1.3,1.3-1.1,2.3-.5,2.8,1.8,5.6,3.6,8.6,5.5-11.7,13.6-20.7,28.7-28.6,44.8.4-3,.6-6,1.2-8.8Zm-1.3,25.1c-.2-1.2-.2-2.4-.4-3.5-.6-4,1.8-7.1,3.3-10.3,4.9-10.6,10.4-21,17-30.6.3-.4.6-.8.9-1.2,3,1.7,6,3.4,8.8,5-2.5,12.2-4.9,24.3-7.4,36.7-7.1,1.9-14.4,4.6-21.3,9-.3-1.8-.7-3.4-.9-5.1Zm34.5,4.4c-4.6,3.1-9.1,6.2-13.8,9-2.6,1.5-5.5,2.4-8.3,3.3-2.8.8-6.7-1.3-8.4-4.3-.7-1.3-1.3-2.6-2.2-4.2,3-1.5,5.7-3.3,8.7-4.5,4.6-1.8,9.3-3.3,14-4.8,1-.3,1.2-.8,1.3-1.7.2-2,.6-4,1-6.2,4.2,3.4,8.1,6.5,12.3,9.8-1.7,1.3-3.1,2.6-4.6,3.6Zm16.7-14.9c-3,2.8-5.9,5.7-8.9,8.5-.3.3-1.2.2-1.6-.1-3-2.3-6-4.7-9-7.1-1.5-1.2-2.9-2.3-4.4-3.5,1-5,2-10,3.1-15.3h17.6c1.3,4.9,2.6,9.8,3.9,14.7.2,1.1.2,1.9-.7,2.8Zm13.9-80.4c-3.4,8.5-6.2,17.2-8.2,26.1-.8,3.4-1.2,6.8-1.7,10.2-.3,1.8-.6,3.6-.7,5.4-.2,4,1.3,7.6,2.9,11.1,1.7,4,3.8,7.8,5.9,12.1-2.5,3.4-5.4,7.2-8.2,11-.2-.1-.3-.1-.5-.2-.5-1.7-1.1-3.3-1.4-5-.8-4.5-1.7-9.1-2.3-13.7-.4-3.3-.8-6.7-.6-10,.3-5.5,1-10.9,1.9-16.3.8-4.7,2-9.3,3.4-13.9,1.7-5.6,3.8-11,5.8-16.5.8-2.2,1.8-4.3,2.9-6.5.4,2.3,1.8,3.8.8,6.2Zm6.4-88.4c0,.4-.4,1-.7,1.1-4.3,1.2-7.8,3.7-10.9,6.9-.1.1-.3.2-.7.5-.9-1.9-.7-3.7.1-5.4,2-4.4,8.3-8.4,12.3-7.4,0,1.4,0,2.8-.1,4.3Zm-10.3,81.1c-5.2,11.2-9.2,22.8-11.9,34.9-.9,4-1.2,8.1-1.7,12.2-.4,3.5-.6,7-.6,10.5,0,3,.4,6,.7,9.3h-16.6c6.3-28.7,16.1-56.3,29.4-82.8,3.5,5.4,3.2,10.5.7,15.9Zm18.8-80.4h-3c-.8-5.2,3-12.1,8.1-11.3-4,2.8-4.7,6.9-5.1,11.3Z"/><path class="cls-1" d="m92.8,114.07c12.7,25.5,9.7,49.4-5.7,72.5,3.3,2.3,6.4,4.7,9.7,6.8,1.9,1.2,4,1.8,6.2,1.9v-78.9c-2.6-.1-5.2-.5-7.7-1.6-.6-.2-1.3-.3-2.5-.7Z"/></svg>