<?xml version="1.0" encoding="UTF-8"?><svg id="Layer_1" xmlns="http://www.w3.org/2000/svg" viewBox="0 0 134.18 117.59"><defs><style>.cls-1{fill:#552e8e;}</style></defs><path class="cls-1" d="m0,35.81c.27-1.35.52-2.7.8-4.05,1.41-6.9,4.48-12.95,9.07-18.3,4.51-5.26,10.08-8.86,16.51-11.29C31.99.05,37.84-.21,43.68.19c6.75.47,13.01,2.72,18.72,6.38,1.36.87,2.56,2.01,3.84,3,.29.23.64.4.96.6,4.72-4.47,10.33-7.22,16.42-8.94,4.88-1.38,9.96-1.41,14.95-1.03,4.27.32,8.4,1.52,12.35,3.3,5.14,2.31,9.53,5.62,13.25,9.77,3.83,4.27,6.58,9.21,8.25,14.71.97,3.2,1.36,6.48,1.65,9.82.51,5.93-.89,11.53-2.56,17.07-1.57,5.22-4.4,9.84-7.6,14.22-4.09,5.6-8.67,10.77-13.71,15.52-3.18,2.99-6.45,5.9-9.78,8.73-3.63,3.08-7.31,6.12-11.1,9-4.41,3.35-8.95,6.55-13.48,9.75-2.46,1.74-5.04,3.32-7.52,5.02-.91.62-1.67.61-2.56-.01-6.96-4.86-14-9.62-20.88-14.59-3.47-2.51-6.77-5.27-9.96-8.14-5.42-4.88-10.89-9.72-15.96-14.95-5.7-5.87-10.75-12.3-14.34-19.75-2.16-4.47-3.29-9.26-4.35-14.06-.12-.56-.18-1.13-.27-1.69,0-2.71,0-5.42,0-8.13Zm67.09-10.63c-.89-1.01-1.78-1.9-2.53-2.89-1.94-2.56-4.17-4.82-6.77-6.71-4.67-3.4-9.93-5.3-15.65-5.67-2.6-.17-5.28.05-7.85.51-7.59,1.37-13.78,5.15-18.32,11.44-4.73,6.54-6.9,13.79-5.73,21.9.56,3.89,1.61,7.63,3.29,11.18,3.21,6.83,7.93,12.62,13.09,18.01,4.11,4.29,8.54,8.28,12.99,12.23,3.82,3.39,7.77,6.66,11.84,9.75,4.71,3.57,9.63,6.86,14.43,10.33.82.59,1.39.61,2.25.04,8.37-5.61,16.48-11.56,24.12-18.14,4.16-3.58,8.33-7.17,12.25-11.01,3.12-3.05,6.01-6.36,8.73-9.76,2.33-2.92,4.57-5.98,6.36-9.25,3.24-5.95,5.1-12.35,4.45-19.23-.22-2.4-.57-4.84-1.25-7.15-1.71-5.79-5.1-10.49-9.8-14.3-6.71-5.44-14.46-7.17-22.85-6.3-4,.41-7.77,1.77-11.26,3.82-2.55,1.49-4.88,3.26-6.83,5.51-1.6,1.86-3.22,3.7-4.96,5.7Z"/><path class="cls-1" d="m95.29,14.83c5.19.24,9.86,1.89,14.02,5.04,4.39,3.32,7.38,7.6,8.93,12.83.52,1.74.47,3.64.84,5.43.63,3.01-.16,5.85-.81,8.72-.26,1.17-.76,2.22-2.17,2.34-2.3.2-3.27-1.25-2.71-3.71.44-1.9.94-3.87.88-5.79-.14-4.22-1.27-8.18-3.88-11.65-3.33-4.41-7.64-7.14-13.12-7.97-1.26-.19-2.54-.27-3.78-.56-1.15-.27-2.06-1.61-1.91-2.5.25-1.45,1.13-2.18,2.64-2.18.35,0,.7,0,1.05,0Z"/></svg>