<?xml version="1.0" encoding="UTF-8"?><svg id="Layer_1" xmlns="http://www.w3.org/2000/svg" viewBox="0 0 134.18 117.59"><defs><style>.cls-1{fill:#552e8e;}</style></defs><path class="cls-1" d="m134.08,37.82c-.29-3.34-.68-6.62-1.65-9.82-1.67-5.5-4.42-10.45-8.25-14.71-3.72-4.15-8.11-7.46-13.25-9.77-3.96-1.78-8.09-2.98-12.35-3.3-5-.38-10.07-.35-14.95,1.03-6.1,1.72-11.7,4.47-16.42,8.94-.33-.2-.67-.37-.96-.6-1.28-1-2.48-2.13-3.84-3C56.69,2.91,50.43.66,43.68.19c-5.84-.4-11.69-.15-17.3,1.97-6.43,2.43-11.99,6.03-16.51,11.28C5.28,18.8,2.21,24.85.8,31.75c-.28,1.35-.53,2.7-.8,4.05v8.13c.09.57.15,1.14.27,1.69,1.07,4.81,2.19,9.59,4.35,14.06,3.59,7.45,8.64,13.88,14.34,19.75,5.08,5.22,10.54,10.07,15.96,14.95,3.19,2.87,6.49,5.63,9.96,8.14,6.88,4.97,13.92,9.72,20.88,14.59.89.62,1.65.64,2.56.01,2.49-1.71,5.06-3.29,7.52-5.02,4.53-3.2,9.06-6.39,13.48-9.75,3.79-2.88,7.47-5.92,11.1-9,3.33-2.83,6.6-5.73,9.78-8.73,5.04-4.75,9.62-9.93,13.71-15.52,3.2-4.38,6.03-9,7.6-14.22,1.67-5.55,3.07-11.14,2.56-17.07Zm-15.8,9.03c-.26,1.17-.76,2.22-2.17,2.34-2.3.2-3.27-1.25-2.71-3.71.44-1.9.94-3.87.88-5.79-.14-4.22-1.27-8.18-3.88-11.65-3.33-4.41-7.64-7.14-13.12-7.97-1.26-.19-2.54-.27-3.78-.56-1.15-.27-2.06-1.61-1.91-2.5.25-1.45,1.13-2.18,2.64-2.18.35,0,.7,0,1.05,0,5.19.24,9.86,1.89,14.02,5.04,4.39,3.32,7.38,7.6,8.93,12.83.52,1.74.47,3.64.84,5.43.63,3.01-.16,5.85-.81,8.72Z"/></svg>