<?xml version="1.0" encoding="utf-8"?>
<!-- Generator: Adobe Illustrator 27.7.0, SVG Export Plug-In . SVG Version: 6.00 Build 0)  -->
<svg version="1.1" id="Layer_1" xmlns="http://www.w3.org/2000/svg" xmlns:xlink="http://www.w3.org/1999/xlink" x="0px" y="0px"
	 viewBox="0 0 960.8 595.3" style="enable-background:new 0 0 960.8 595.3;" xml:space="preserve">
<style type="text/css">
	.st0{fill:#735BA7;stroke:#030202;stroke-width:1.5636;stroke-miterlimit:10;}
	.st1{fill:#FFFFFF;stroke:#000000;stroke-width:0.5;stroke-linecap:round;stroke-linejoin:round;stroke-miterlimit:10;}
	.st2{fill:none;stroke:#000000;stroke-width:0.5;stroke-linecap:round;stroke-linejoin:round;stroke-miterlimit:10;}
	.st3{fill:#4F4D4C;stroke:#000000;stroke-linecap:round;stroke-linejoin:round;stroke-miterlimit:10;}
	.st4{fill:none;stroke:#000000;stroke-width:0.9999;stroke-linecap:round;stroke-linejoin:round;stroke-miterlimit:10;}
	.st5{fill:#4F4D4C;stroke:#000000;stroke-width:0.9999;stroke-linecap:round;stroke-linejoin:round;stroke-miterlimit:10;}
	.st6{fill:#4F4D4C;stroke:#000000;stroke-width:0.5;stroke-linecap:round;stroke-linejoin:round;stroke-miterlimit:10;}
	.st7{fill:none;stroke:#000000;stroke-width:0.5;stroke-miterlimit:10;}
	.st8{fill:#E81E25;stroke:#000000;stroke-width:0.9999;stroke-miterlimit:10;}
	.st9{fill:none;stroke:#000000;stroke-width:0.75;stroke-miterlimit:10;}
	.st10{fill:#E81E25;stroke:#000000;stroke-width:0.9999;stroke-linecap:round;stroke-linejoin:round;stroke-miterlimit:10;}
	.st11{fill:#FFFFFF;stroke:#000000;stroke-width:0.5;stroke-miterlimit:10;}
	.st12{fill:#542D8E;stroke:#030202;stroke-width:1.5636;stroke-miterlimit:10;}
	.st13{fill:#B6862D;stroke:#000000;stroke-width:0.9999;stroke-linecap:round;stroke-linejoin:round;stroke-miterlimit:10;}
	.st14{fill:#FFFFFF;}
	.st15{fill:#6ABD45;stroke:#030202;stroke-width:0.7818;stroke-miterlimit:10;}
	.st16{fill:#B6862D;stroke:#000000;stroke-width:0.5;stroke-linecap:round;stroke-linejoin:round;stroke-miterlimit:10;}
	.st17{fill:#542D8E;stroke:#030202;stroke-width:0.5;stroke-miterlimit:10;}
	.st18{fill:none;stroke:#000000;stroke-width:0.25;stroke-miterlimit:10;}
	.st19{fill:#542D8E;stroke:#030202;stroke-miterlimit:10;}
	.st20{fill:#6ABD45;}
	.st21{fill:none;stroke:#030202;stroke-width:1.3;stroke-miterlimit:10;}
	.st22{fill:#B6862D;}
	.st23{fill:#030202;}
	.st24{fill:#6ABD45;stroke:#030202;stroke-width:0.5;stroke-miterlimit:10;}
	.st25{fill:#542D8E;}
</style>
<g id="Layer_7">
</g>
<g id="logo_text">
</g>
<g id="line_work">
</g>
<g id="Layer_5">
</g>
<g id="hat">
</g>
<path class="st0" d="M382,197.9c0,0-9.7,2.7-12.9,3.9c-1.3,0.5-1.9,1.2-2.4,2.1c-0.8,1.3-1.2,2.7-3.2,3.6
	c-3.3,1.5-23.1,5.9-23.1,5.9s0.3,9.5,3.3,15.1s3,5.6,3,5.6s-0.4,0.4-1,1c-1.1,1.1-2.8,2.9-2.8,4.1c0,1.8,6.5,5,6.5,6.2
	s-3.9,5.6-3,12.7s-0.9,24,9.5,34.1l13.3-5c0,0-2.5,6.1-4.1,9.5s-2.1,6.2-2.1,6.2l4.3,1.5c0,0-7,24.6-8.4,31.8
	c-1.5,7.3-1.6,6.5,7.4,7.3c0,0,1.8,8.3,3.3,14.5s2.4,14.1,2.7,18.2c0.3,4.1,1.9,10.2,4.9,14.7c3,4.4,7.1,14.2,7.1,14.2
	s-6.5,1.8-6.7,3.1c-0.1,1.3,2.1,6.2,2.1,6.2l4.6,8.9c0,0-4.1,6.1-5,9.9l-0.6,1.3c0,0,1.9-1.2,8-1.2s12.7,1,17.9,3.3
	c5.2,2.2,9.9,5,12.3,4.6s5.3-1.9,5.3-1.9s0.1-3.3,1.8-3.7c0,0,0.7-7.3,0-8s-1.5-1.5-1.5-1.5s4.4-13.6,4.7-17s-4-5.2-4-5.2
	s-5.3-31.4-3.6-33.2c1.8-1.8,12.7,14.5,15.4,21s9,15.1,8.3,16.4s-7.3,3.3-7.3,7s7.3,5,8.3,8.3s-0.4,16.1,0,17.8h1.2
	c0,0,5.8-2.7,10.1-3.2s14.5-0.9,16.9-1.6s6.5-6.5,11.3-6.5s8.6,1.9,8.6,1.9s-4.6-12.6-6.5-13.9s-3.1-3.7-2.4-6.8
	c0.7-3.1,0.6-8.1-1.3-10.4c-1.9-2.2-8.7-8.6-8.7-12.6s0-17.8-2.5-23.4s-4.3-22.7-3.9-24.7l1.9-2.4c0,0-0.3-17.8-3.4-25
	S458,295,458,295l2.5-0.1c0,0-3.7-12-3-13.5s6.1-1.3,6.1-1.3s11.7,0.9,12.7-0.9s1.2-8.9,1.6-10.4s-2.2-10.8-4.1-12.9
	c-1.9-2.1,0-5-2.2-8.1s-0.1-8.9-0.1-8.9s1.1-1.5,1-3.3s-4.3-5.9-4.3-5.9s4-4.1,3-5.9c-0.9-1.5,1-8.9,1.3-12.6c0.1-0.6,0.1-1.2,0-1.5
	c-0.4-2.4,2.5-10.7-3.4-10.2c-5.9,0.4-27.4-3.3-29.9-4.3s-5-1-5-1l-4.2-0.9c0,0-3,4-9.1,5s-8,2.1-8,2.1s-8.6,3.5-17.4,2.3
	C386.6,201.5,382,197.9,382,197.9z"/>
<path class="st1" d="M389.7,201.6c0,0,0.8,9.2,0.7,9.6c-0.1,0.4,1.1,12.8,2.4,14.9c1.3,2.1,3.9,13.7,5.3,16.2
	c1.5,2.5,5.7,9.6,5.7,9.6l3.6-0.2h11.7c0,0,0.7-0.9,1.7-5.4c1-4.4,4.8-26.1,4.8-26.1s0.2-12.6-0.8-16.1s-5.2-5.5-5.2-5.5
	s-3.1,0.8-6.8,1.9C409.2,201.5,401.1,205.3,389.7,201.6z"/>
<path class="st2" d="M389.7,254.1l3.5,0.4v-1.3c0,0-2.4-1.6-6.4-5.1s-9.3-15.8-12-21.3c-2.6-5.6-1.4-7.8-1.4-7.8l4.9-0.9l2-4.9
	c-2-3.1-6.6-3.3-6.6-3.3s-0.7-4,0-5.8s9.5-4.9,9.5-4.9"/>
<path class="st3" d="M387.9,283.4c0,0,0.6,5.9,1.3,8.2s1,3.3,1.1,5c0.1,1.6,0.4,4.2,2.5,4.3c2.1,0.1,3.9-6.4,3.9-6.4s2.1,3.5,3,5
	c0.8,1.5,2.1,2,3,1.9s3-4.9,2.9-6.1s1.6-6.5,2.3-7.1c0,0,1.4-4.2,3.2-5.1s5.3-1.9,5.3-1.9s4.1-0.1,5.9,0c1.7,0.1,3.6-0.7,3.5-2
	s-1.3-3-1.3-3s-6.4-4.4-7.5-4.8s-1-1.3-2.9,0.9s-3.8,1.7-6.2,1s-3.1-2.4-5.5-2.3s-5.6,0-5.6,0v2.5l-4.7,4.2l-4.1,1.8
	C387.9,279.1,387.3,281.7,387.9,283.4z"/>
<g>
	<g>
		<path class="st4" d="M379.8,198.8c0,0-3.6,1.3-10.5-10.2c-6.8-11.5-16.8-47.2,1.2-53.8"/>
		<path class="st5" d="M379.8,198.8c0,0-3.6,1.3-10.5-10.2c-6.8-11.5-16.8-47.2,1.2-53.8"/>
		<path class="st6" d="M383.4,124.1c0,0,1-1.6,4-1.6s8.3,0.4,13.8,0c5.4-0.4,10.9-1.3,13-1.4s6.6,0,9.6,1.5s4.9,4,4.9,4
			s-3.9,0-6.1,1.4c0,0,0.9,1.7,2.7,2.1c1.8,0.4,10.4,4.4,11.9,7.3c1.4,2.9,1.9,5.4,1.9,5.4s1.4,0,2,1.1c0.8,1.6-0.4,4.4-0.7,6.4
			c-0.2,2-0.2,3.8,2.3,5.9c2.6,2.1,0.7,3.8,0.7,3.8s3.1,1.6,3.3,3.3s0.2,4.4-2.6,4.7c0,0,2.3,1.6,2.1,5.9c-0.2,4.3-1,10-2.3,10.8
			s-1.3,0.8-1.3,0.8l-0.6,0.6c0,0,5.5,0.8,5.5,3.7c0,0,0.6,3.8-9.7,4.2c-0.8,0-1.6,0-2.5,0c0,0-3.2,0-5.3-0.9c0,0-3.7,5.6-14.4,5.6
			c0,0-6.7,3.4-20,3.9c-26.9,1-32.7-16.4-29.2-32.1"/>
		<path class="st5" d="M415.4,198.8c0,0-6.7,3.4-20,3.9c-26.9,1-32.7-16.4-29.2-32.1"/>
		<path class="st2" d="M399.8,128.3c0,0-1-2.2,1.6-2.6s2,0.8,3.4,0.8s5.4-1,13.6,3.6c8.1,4.6,15.7,13.7,15.7,13.7h-1.7
			c0,0-5.2-8.7-15.6-11.2c-10.3-2.6-13.4-3.7-13.4-3.7s1.2,2.9,1.2,4s0,0,0,0S403.2,130,399.8,128.3"/>
		<ellipse class="st7" cx="436.5" cy="189.9" rx="10.9" ry="4.3"/>
		<ellipse cx="436.7" cy="190.4" rx="6.8" ry="1.8"/>
		<path class="st8" d="M412.2,149.1c3,16-4.9,28.9-17.3,31.2s-24.5-6.8-27.5-22.8s4.6-30.9,17-33.2
			C396.7,122.1,409.2,133.1,412.2,149.1z"/>
		<path class="st9" d="M412.8,152.7c3.4,18-4.3,32.2-16.7,34.6c-12.4,2.3-24.7-8.1-28.1-26.1s3.9-34.4,16.3-36.8
			C396.7,122.1,409.5,134.7,412.8,152.7z"/>
		<path class="st10" d="M428.6,126.6c0,0-3.9,0-6.1,1.4c0,0,0.9,1.7,2.7,2.1c1.8,0.4,10.4,4.4,11.9,7.3c1.4,2.9,1.9,5.4,1.9,5.4
			s1.4,0,2,1.1c0.8,1.6-0.4,4.4-0.7,6.4c-0.2,2-0.2,3.8,2.3,5.9c2.6,2.1,0.7,3.8,0.7,3.8s3.1,1.6,3.3,3.3s0.2,4.4-2.6,4.7
			c0,0,2.3,1.6,2.1,5.9c0,0,6.5-1.9,6.4-10.3c0-0.6-0.3-0.3-0.8,0.5c0.8-4.2,0.7-10-1.4-18C445.6,128.5,428.6,126.6,428.6,126.6z"/>
		<path class="st9" d="M415.4,198.8c0,0,6.3-4.4,7.3-13.7c0.9-8.5-1.4-12.7-2.7-13.7"/>
		<path class="st9" d="M432.9,185.6c1.7-4.1,1.6-8,0-11.7"/>
		<path class="st7" d="M441,173.9c1.6,3.7,1.1,8-0.4,11.7"/>
		<path class="st7" d="M431.5,174.5c0,0,2.8-1.9,5.8-1.9s5.6,2.9,5.6,2.9"/>
		<path class="st2" d="M444.1,168.1c0,0-3,0.3-5,0s-2.8-1.1-6.2,1.3c-3.4,2.4-8.9,1.2-9.9-8s3.8-14.2,3.8-14.2"/>
		<path class="st7" d="M429,146.3c0,0-0.4,1.3,0,1.8c0.4,0.6,1.3,1,2.2,0.2c0.9-0.8-0.2-2.7,1.7-2.3s0.8,2.8,0,4.2
			c-1.8,3.3,0.4,12.5,4,11c3.1-1.9-3.4-5.6-1.8-11.3c1.3-4.5,0-5.8-2.2-6.1C430.6,143.4,429.7,144.5,429,146.3z"/>
		<path class="st7" d="M439,142.9c0,0-1.8,0.1-2.4,1.6c-0.7,1.6,0.7,2.4,0.7,2.4s0.2-1.6,1.8-1.6s-2.8,3.8-1.3,9.1s3.4,6.9,5.6,5.7"
			/>
		<path class="st11" d="M396.1,131.6c1.9-1.7,6.1,1.7,7.9,8.1c1.8,6.4,3.8,11.8,0.8,12.8s-1.6-3.8-3.6-8
			C399.2,140.3,392.4,134.9,396.1,131.6z"/>
		<path class="st11" d="M441.4,134.7c-1.5,0.2-1.8,4.3,0,5.7s2.9,4,3.6,5.8s1.4,2.8,3.6,1.9c2.1-0.9-0.6-6.7-2.6-9.2
			C444,136.3,443.9,134.3,441.4,134.7z"/>
		<path class="st4" d="M391.4,124.7c0,0-16.7,4.8-22.3,37.4"/>
		<path class="st4" d="M394.1,135.9c0,0-17.8,11.7-17.4,34.6"/>
		<path class="st4" d="M401.1,148.4c0,0-13.8,10.7-12.8,27.1"/>
		<path class="st4" d="M370.3,138.8c0,0,28.4,10.7,36,29.8"/>
		<path class="st4" d="M367.2,154.8c0,0,25.4,5.3,31.9,24.2"/>
		<path class="st4" d="M409.7,142.5c0,0-2.8,1.4-4.1,3"/>
		<path class="st4" d="M402.2,131.2c0,0-1.8-0.3-3,0.7"/>
		<path class="st4" d="M379.2,126.6c0,0,7.6-1.6,15.8,4.6"/>
		<path class="st4" d="M407.6,147.8c0,0,4.3,4.8,4.9,12.3"/>
		<g>
			<path d="M385.4,130.5c-7.2,8.4-10.4,21,0.2,28.1l0.7,0.5c0.7,0.3,1.5,0.8,2.3,1.1l1.6,0.5c1,0.2,2.3,0.4,3.3,0.3
				c4.5-0.2,8.7-2.5,11.9-5.5c0.2-0.2,0.4-0.2,0.6,0s0.1,0.4,0,0.6c-3.5,3.1-7.8,5.4-12.5,5.5c-1,0-2.5-0.2-3.5-0.4l-1.7-0.6
				c-0.8-0.3-1.6-0.8-2.3-1.2c-0.7-0.5-1.4-1-2.1-1.6C374.8,150.3,378.5,138.3,385.4,130.5L385.4,130.5z"/>
		</g>
		<path class="st2" d="M407.6,126.4c0,0,5.7-0.3,7.8,0c2.1,0.3,3.4-0.8,7.1,1.6"/>
		<path class="st2" d="M414.5,126.6c0,0,1.8-0.1,4.7,2.2c2.9,2.3,3.5,3.5,6.5,3.8s9.8,4.1,10.7,6.7c0.9,2.6,1.4,4,1.4,4
			s-1.4-0.3-1.4,2.2"/>
		<path class="st2" d="M424.5,132.4c0,0,6.3,2.9,8.4,4.9s3.7,6.1,3.7,6.1"/>
		<path class="st5" d="M446.2,174c7.3-3,6.1-10.6,6.1-10.6l-0.5,0.8c-2.8,3-5.1,0.9-5.1,0.9s0.2,0.9-0.5,1.9c-0.8,1-1.6,1.1-1.6,1.1
			v0.5C444.6,168.6,446.5,170.6,446.2,174"/>
		<path class="st2" d="M431.5,127.2c0,0-3.1,1.3-2.7,4.4"/>
		<path class="st2" d="M452.1,154.8c0,0,0.9,3.7-9.4,1.6"/>
		<path class="st2" d="M426.1,127.2c0,0,9.9,2.1,13.7,7.4"/>
		<path class="st2" d="M448.5,148.1c0,0,2.4,8.9,0,16.7"/>
		<path class="st2" d="M440.2,141.9c0,0,4.8,5.8,4.6,14v5.2"/>
	</g>
	<path class="st2" d="M440.2,131.8c0,0-2.2-0.8-3.5,4.1"/>
</g>
<path class="st12" d="M378.5,434.5c0,0,1.9-1.2,8-1.2s12.7,1,17.9,3.3c5.2,2.2,9.9,5,12.3,4.6s5.3-1.9,5.3-1.9l0.9,8l1.5,8.7
	c0,0-1.9,5-11.7,4.7l-6.2-0.6l-0.4,5.2c0,0-23.4,4.9-40,4.4c-16.6-0.4-21.2-3-21.2-3s-1.8-7.1,0-7.9c1.8-0.7,3.9-0.7,3.9-0.7
	s-1.5-8.9,3.6-9.9c5-1,12.7-1.3,12.7-1.3s5.8-5.2,6.8-6.4c1-1.2,4.6-2.8,4.6-2.8S377.7,434.9,378.5,434.5z"/>
<path class="st12" d="M348.7,458.2c0,0-1.5-8.9,3.6-9.9c5-1,12.7-1.3,12.7-1.3s8.5-0.6,11,0s3.9,4.2,6.4,4.6s13.1-1.4,15.1,1.8
	c2.1,3.3,1.2,6.1,1.2,6.1s-25.3,2-36,0C352.1,457.6,348.7,458.2,348.7,458.2z"/>
<g>
	<path class="st13" d="M345.6,235.1c0.5,0.6,1-1,1-1s0,0-3-5.6s-3.3-15.1-3.3-15.1s19.8-4.4,23.1-5.9c2-0.9,2.4-2.3,3.2-3.6
		c0,0-35-66.9-58.8-85.2C284,100.4,270.9,92.9,258,92.9c-12.9,0-3.1,10.2-3.1,10.2s-2.4,1.1-0.2,6c2.2,4.9,2.2,8.2,2.2,8.2
		s-2.9,4,1.6,8.2c0,0-4,1.9,2,12.3c0,0-3.3,5.9,0.7,10.5s6.4,6.4,5.8,11.7c-0.7,5.3,1.3,6.8,2.7,8.1c1.3,1.2,4,6.4,5.8,10.9
		c1.8,4.5,14,10.5,16.2,13.2c2.2,2.7,9.6,12.4,14.4,13.8s10.9,8.9,14.2,12.4c3.3,3.6,11.8,10,15.8,10.7
		C340.1,229.8,343,232.1,345.6,235.1z"/>
	<g>
		<path class="st14" d="M347.2,233L347.2,233L347.2,233z M261.4,129.2c-0.1,0.3-1,2.4,2.7,8.9c0.4,0.7,0.4,1.6,0,2.3
			c-0.1,0.2-2.4,4.5,0.4,7.6c0.5,0.5,0.9,1.1,1.4,1.5c3.2,3.6,5.6,6.2,4.9,11.8c-0.5,3.7,0.6,4.7,1.7,5.7l0.2,0.2
			c2,1.8,4.9,8,6.2,11.6c0.8,2.1,6,5.5,9.5,7.8c3.1,2,5,3.3,6,4.5c0.3,0.3,0.6,0.8,1,1.3c2.3,2.9,8.5,10.5,11.9,11.5
			c4.6,1.3,9.6,6.8,13.2,10.8c0.7,0.8,1.3,1.4,1.8,2c3.4,3.7,11.2,9.3,14.2,9.8c1.5,0.3,3,0.7,4.4,1.4c-2.6-5.9-2.8-14.2-2.9-14.5
			c0-1.1,0.7-2.1,1.8-2.3c7.4-1.7,20-4.7,22.2-5.7c0.7-0.3,1-0.7,1.4-1.4c-4.6-8.6-35.4-65.5-56.4-81.6
			c-24.2-18.5-36.1-24.8-47.4-24.8c-3.1,0-4.1,0.7-4.2,0.9c-0.3,0.8,1.1,3.4,2.8,5.2c0.5,0.5,0.7,1.3,0.6,2c-0.1,0.6-0.5,1.2-1,1.5
			c-0.1,0.2-0.2,1.2,0.6,3c2.4,5.2,2.4,8.9,2.4,9c0,0.5-0.2,0.9-0.4,1.3c-0.2,0.4-1.4,2.5,1.2,5.1c0.6,0.5,0.8,1.3,0.7,2
			C262.3,128.2,261.9,128.8,261.4,129.2z M261.1,129.3L261.1,129.3L261.1,129.3z M261.1,129.3L261.1,129.3L261.1,129.3z
			 M261.1,129.3 M257.6,107.3L257.6,107.3L257.6,107.3z M257.6,107.3L257.6,107.3L257.6,107.3z"/>
	</g>
	<path class="st4" d="M262.1,93.2c0,0,0.2,4,4.4,6.6c4.2,2.7,20.4,12.9,20.4,12.9s2.6,1.9,6.4,0c0,0,20.4,12,27.3,21.9
		s13.8,21.2,13.8,21.2l17.3,27.5l13.8,22.3"/>
	<line class="st4" x1="293.4" y1="112.7" x2="272.8" y2="96.1"/>
	<path class="st4" d="M288.3,113.3c0,0-2,0.5-2.7,1.8c-0.7,1.3,10.4,9.6,12.9,11.1c2.4,1.5,3.8,3.6,6.4,6.1
		c2.7,2.5,11.1,4.1,12.7,6.4c1.6,2.3,8.7,11.9,10.4,12.9c1.8,1,4,2,4,2l2.6-3.4"/>
	<path class="st4" d="M348.2,171.4c0,0-2.1,3.3-4.5,4.1s-9.3-8-12.9-11.4s-12.8-13.9-16.9-14.6c-4-0.7-7.8-3.9-9.8-7
		s-10.4-11.9-10.7-13c-0.3-1.1-1.6-1.3,1.8-2.2c3.4-0.9,1-2.6,1-2.6"/>
	<path class="st4" d="M255,103.2c0,0,3.3-1.1,6.2,0s8.1,5.6,11.6,6.2c3.5,0.7,5.1,0.7,7.1,2s5.8,3.8,5.8,3.8"/>
	<path class="st4" d="M256.9,116c0,0,3-1.3,7.2,0c4.2,1.3,10.4,5.3,12.9,5c2.4-0.3,6.7,1.8,9.6,3.1c2.9,1.3,8.7,3.1,8.7,3.1"/>
	<path class="st4" d="M258.5,125.6c0,0,7.8-0.1,11.8,1.6s11.8,4.9,12.8,5.2s11.4,8.3,13.4,9.1s8.7,2.5,8.7,2.5"/>
	<path class="st4" d="M260.5,137.9c0,0,2-2,6.2,1c4.2,3,15.1,8.3,18.9,9s7.6,4.5,9.6,4.8s4.4,0,4.4,0"/>
	<path class="st4" d="M343.6,175.5c0,0-4.2-0.1-4.2,3.6c0,3.6,6,9,7.1,13.2s4,11,5.6,13.4s1.6,2.6,6,1.3s5.4,0.5,5.4,0.5"/>
	<path class="st4" d="M304,143.7c0,0-5,1.3-5.2,3.6c-0.2,2.3,0.4,5.6,4.4,9.8c4,4.1,2.7,10.1,4.7,11.1s5.1,0.3,10.7,7.3
		c5.6,7,23.1,20.1,25.6,21.4c2.4,1.3,4.8,2.2,4.8,2.2"/>
	<path class="st4" d="M264.2,151.7c0,0,12.1,3,15.9,5.3c3.8,2.3,10,3.4,12.9,4.9s5.7,2.8,5.7,2.8"/>
	<path class="st4" d="M266.9,162c0,0,0.2,4.5,5.9,4.9c5.8,0.4,7.1-0.6,10.3,1.8c3.2,2.4,12.2,8.2,14,7.7"/>
	<path class="st4" d="M306.5,164.7c0,0-7-2.7-8.8,1.3c0,0,3.2,4.3,2,6.6c-0.7,1.2-4.7,3.7-0.9,6.5c3.8,2.8,12.3,5.8,15.2,11.4
		c2.9,5.6,3.8,7.4,3.8,7.4s7.1,4.3,13.3,7.8s14.5,6.5,14.5,6.5"/>
	<path class="st4" d="M316.9,196.4c0,0-4-0.4-7.9,2.4c-3.8,2.8-3.9,5.9-3.9,5.9s7.5,3.6,11.7,5.3c4.3,1.8,18.3,7.3,20.3,9.8
		c2,2.4,5,5.2,5,5.2"/>
</g>
<path class="st13" d="M453.3,163.5c0,0,3.1-18.3,31.7-52.8c27.3-33,44-35.8,50.4-28.2c0,0,2,2.7-2.9,5.8c0,0,0.9,2.1,0.7,4.9
	c-0.2,2.8-2.9,4.9-2.9,4.9s2.2,2.2,1.6,6c-0.7,3.8-2.9,6.7-2.9,6.7s3.1,0,1.8,5.3S527,122,527,122s2,4.8,1.1,8.6
	c-0.9,3.8-3.8,7.4-3.8,7.4s3.1,0.1,1.3,5.8c-1.8,5.7-7.6,15.3-7.6,15.3s4,2.3-2,8c-6,5.8-18.4,23.5-18.4,23.5s-19.7,19-25.3,20.7
	l0,0c0.1-0.6,0.1-1.2,0-1.5c-0.4-2.4,2.5-10.7-3.4-10.2c-5.9,0.4-27.4-3.3-29.9-4.3s-5-1-5-1h1.1c0.9,0,1.7,0,2.5,0
	c10.3-0.4,9.7-4.2,9.7-4.2c0-2.9-5.5-3.7-5.5-3.7l0.6-0.6c0,0,0,0,1.3-0.8s2.1-6.4,2.3-10.8c7.3-3,6.1-10.6,6.1-10.6L453.3,163.5
	L453.3,163.5z"/>
<g>
	<path class="st14" d="M469.4,197.1c2.1,0,3.3,0.8,4,1.6c2.1,2.2,1.7,5.8,1.4,8.5c5.5-3.8,15-12.5,21-18.2c1.4-2,12.8-18,18.6-23.6
		c2-1.9,2.6-3.3,2.6-3.9c0-0.2-0.1-0.3-0.2-0.4c-0.6-0.3-0.9-0.7-1.1-1.4c-0.2-0.6,0-1.3,0.4-1.8c0.1-0.1,5.7-9.4,7.3-14.8
		c0.5-1.7,0.5-2.5,0.4-2.8c-0.7-0.2-1.3-0.6-1.6-1.3c-0.4-0.8-0.3-1.8,0.3-2.5c0,0,2.6-3.2,3.3-6.4c0.6-2.5-0.5-6-1-7.1
		c-0.3-0.6-0.2-1.4,0.1-2s0.8-1,1.4-1.2c0.2-0.1,1.4-0.9,2.2-4.2c0.4-1.5,0.3-2.2,0.2-2.4c-0.8-0.1-1.4-0.6-1.8-1.3
		c-0.4-0.8-0.3-1.8,0.2-2.5c0,0,1.9-2.5,2.4-5.6c0.4-2.5-0.9-3.9-0.9-4c-0.5-0.5-0.7-1.2-0.6-1.8c0.1-0.7,0.4-1.3,0.9-1.7
		c0.5-0.4,1.8-1.7,2-3.2c0.2-2.2-0.5-3.8-0.5-3.8c-0.4-1.1-0.1-2.3,0.9-2.9c1.9-1.2,2.2-2,2.2-2.3l0.1-0.1c-1.5-1.7-3.7-2.6-6.3-2.6
		c-5.6,0-18.3,4.1-40.5,30.8c-27.7,33.4-31.1,51.5-31.2,51.7c-0.1,0.6-0.4,1.1-0.9,1.5c-0.2,3.2-1.6,7.7-6.3,10.2
		c-0.4,5.4-1.2,8.2-1.9,9.6c1.8,1,3.2,2.5,3.2,4.6c0,0.6,0,1.8-1.1,3.2c-0.5,0.6-1.1,1.1-1.9,1.5c7.3,1.3,18.2,2.9,22,2.7
		C469,197.1,469.2,197.1,469.4,197.1z M445.1,190.2L445.1,190.2L445.1,190.2z M445.1,190.2L445.1,190.2L445.1,190.2z M445.1,190.2
		L445.1,190.2L445.1,190.2z M524.2,140.2L524.2,140.2L524.2,140.2z M526.2,119.7L526.2,119.7L526.2,119.7z M526.4,119.6
		C526.4,119.7,526.4,119.7,526.4,119.6C526.4,119.7,526.4,119.7,526.4,119.6z M526.4,119.6L526.4,119.6L526.4,119.6z M528.8,113.1
		h0.1C528.9,113.1,528.9,113.1,528.8,113.1z"/>
</g>
<path class="st4" d="M522.2,79.8c0,0-23,15.8-27,22s-15.3,18-16.7,20.9c-1.3,2.9-20.9,33.6-22.2,37.4c-1.3,3.7-6.7,12.5-6.7,12.5
	l-3.7,4.8"/>
<path class="st4" d="M520,81.3c0,0-15.1,15.6-17.1,16.9s-3.6,4-3.6,4v1.1"/>
<path class="st4" d="M484.9,114.6c0,0,16.9-12.8,18.5-13.4c1.6-0.7,2.9,0,2.9,0s6.4-6.4,10.4-8s12.9-8.3,15.8-4.9"/>
<path class="st4" d="M530.3,98.1c0,0-2.7-3.1-6.2,0c-3.6,3.1-16.7,12.7-16.7,12.7l-9.3,6.7"/>
<path class="st4" d="M460.8,152c0,0,20.4-23,23.3-26.5c2.9-3.6,8-9.6,12.2-8s0,4.9,0,4.9l-6,11.6c0,0-12,9.1-12.9,12.1
	s-5.8,12.4-8.2,14.2s-8.7,8-10,11.3s-5.6,7.4-6.8,7.7c-1.2,0.3-6.2,3.6-6.2,3.6"/>
<path class="st4" d="M454.1,198.1c0,0,12.9-17.4,20.4-20.6c7.6-3.2,14.2-16.5,13.8-18.5c-0.4-2-1.8-8.7,1.8-11.7s8-8.4,8-8.4
	s-4.2-4.3,0-8.3s13.3-14.3,17.3-15.9c4-1.6,9.3-6.5,13.6-3.9"/>
<line class="st4" x1="490.3" y1="133.9" x2="498.1" y2="130.5"/>
<path class="st4" d="M498.1,138.8c0,0,2,1.3,5.6-1s6.7-7.2,10.6-8.9c3.9-1.6,9-4.2,9.7-4.9c0.7-0.7,3.1-2.2,3.1-2.2"/>
<path class="st4" d="M469.2,160.1c0,0,6.2,1.8,1.6,11.3c-4.7,9.5-11.8,18.5-11.8,18.5l-1.9,4.3"/>
<path class="st4" d="M524.3,137.9c0,0-9.4,1.8-14.6,7.2c-5.2,5.4-11.5,9.7-11.5,9.7c-2.3,0.6-10.2,2.2-10.2,2.2"/>
<path class="st4" d="M498.2,154.8c0,0-2.3,3.4-1.2,7.1s4.2,4.1,4.2,4.1"/>
<path class="st4" d="M518.1,158.9c0,0-0.7-1.9-6.4,1.2c-5.8,3.1-12.7,8.1-12.7,8.1s2.8,3-2.3,7.3s-10.8,12.1-10.8,12.1L467,198.8"/>
<path class="st4" d="M485.9,187.6c0,0,6.9-2,9.3,0.4s2.4,2.4,2.4,2.4"/>
<path class="st2" d="M345.5,216.9c0,0,3.5,5.3,4.4,8.1s4.4,8.4,4.4,8.4l3.6,1.8"/>
<path class="st2" d="M357.9,218.5c0,0,1.1,14.2,1.1,19.6s1.3,11.3,1.3,11.3l2.2,3.8l7.8,4"/>
<path class="st7" d="M355.2,254.5c0,0,3.1-0.9,4.9,0s4,2.7,4,2.7l3.1,0.9"/>
<path class="st7" d="M351.7,256.1c0,0,5.3,0.4,6.2,1.1c0.9,0.7,3.3,2.2,3.3,2.2"/>
<path class="st7" d="M351.5,273.8L349,266h2.5c0,0,4-6.1,6.4-6.7s8.8,0,8.8,0l11.9-0.3l11.2-5l-1.4,4v6.7l4.9,9.1l-1.1,3.6l-23,9.8"
	/>
<line class="st7" x1="365.6" y1="263.4" x2="366.7" y2="276.7"/>
<path class="st7" d="M357.9,265.8c0,0-2.4,7.3-2.7,13.1"/>
<polyline class="st4" points="393.2,253.2 395.2,259.4 395.2,263.4 396.7,268.3 396.7,273.1 393.2,276.7 "/>
<path class="st5" d="M395,254.5h1.8c0,0,4-2.2,7.1-2.7s8.7,0.2,11.6,0s7.5-0.2,7.5-0.2l6.9,4.4c0,0,7.3,1.8,9.6,3.3
	c2.2,1.6,5.3,2.2,5.6,3.1c0.2,0.9-2,3.3-8.4,3.3s-12-2.4-12-2.4l6.2,6.7c0,0,5.6,3.1,5.8,4.7s2,4.2,2,4.2l0.7,2c0,0-8-0.4-10.4-2
	s-12-8.8-13.3-8.3s-1.8,3-5.6,2.8s-5.1-3.1-7.6-2.8c-2.4,0.3-5.6,0-5.6,0v-4.3l-1.6-2.9v-4l-2-4.9L395,254.5L395,254.5z"/>
<path class="st2" d="M388.8,283.4c0,0-1.4-0.3-1.5-0.5c-0.1-0.3,0.3-2.4,0.3-2.4l1.6-0.9"/>
<path class="st2" d="M396.7,294.3c0,0,1.1-7.8,1.9-9s1.5-4.5,2.9-5.5"/>
<path class="st15" d="M405.8,293.6h12.7c0,0,3.4-2.3,3.3-6.4s-3-6.2-3-6.2h-2.4c0,0-5.2,1.4-6,2.4s-2.5,4.5-2.5,4.5
	S406.1,291.4,405.8,293.6z"/>
<path class="st16" d="M405.8,293.6h12.7c0,0,1.9-0.2,1.9,1.4s-1.9,1.3-1.9,1.3h-13.1l0.2-1.3L405.8,293.6z"/>
<polyline class="st16" points="406.1,296.3 409,304.6 416,304.6 418.4,296.3 "/>
<path class="st16" d="M401,283.7l-0.9-0.4l-0.4-0.3l-0.5,2l1.4,0.8C400.5,285.8,400.2,284.5,401,283.7"/>
<line class="st2" x1="409.5" y1="297.3" x2="410.9" y2="302.7"/>
<line class="st2" x1="413.7" y1="297.9" x2="413.7" y2="301.2"/>
<path class="st2" d="M472.4,211.2c0,0-2.5,3.7-2.5,4.7s-2.9,7-2.9,7"/>
<path class="st2" d="M465.9,223.7c0,0,2.1-2.7,5-0.9"/>
<path class="st2" d="M454.7,211.2c0,0-4.3,23.7-4.3,29.5s1.3,12.5,1.3,12.5"/>
<path class="st2" d="M428.8,255.4c0,0,19.4-2.8,25.9-1.3s7.7,2,7.7,2"/>
<path class="st2" d="M458,254.9c0,0,4.7,3.3,6.8,7.3c2.1,4,3.5,3.7,3.5,3.7"/>
<path class="st2" d="M455.6,257.2c0,0,1.9,7.2,1.5,10.3"/>
<path class="st2" d="M454.1,254c0,0,1.9-6.8,14.3-5.9"/>
<path class="st2" d="M429.1,194.2l8.6,5.7l-6.2,5.8l1.3,3.3c0,0,2,3.3,5.9,3.3s3.3,2.8,3.3,2.8s-4.9,19.4-8,26.2
	c-3,6.8-8.4,11.9-8.4,11.9"/>
<path class="st2" d="M402.4,203.1c0.6,1.7-5.2,13.9-5.2,13.9s-1.5-1.2-3.2-3.6c-1.7-2.4-3.7-2.2-3.7-2.2"/>
<path class="st2" d="M407.8,201.6c1,0.4,10.1,9.1,10.1,9.1l5.1-6.1l1-0.4"/>
<path class="st2" d="M400.1,210.7l2.4,6.2c0,0,2.1-1.9,5.2-1.9s3.9,1.5,3.9,1.5l3.3-8.8"/>
<path class="st12" d="M411.1,216.1l3.7,14.6c0,0,5,16.5,5,19.3l-0.7,1.7l-15.2,0.2l-3.3-5.6c-0.3-2.5,1.9-12.3,1.9-12.3v-17
	c0,0,2-1.2,4.6-1.8S411.1,216.1,411.1,216.1"/>
<path class="st2" d="M418.2,223c0,0,5-2.8,5.8-2.8"/>
<path class="st2" d="M415.9,226.8c0,0,4.5-2,6.7-1.7"/>
<path class="st2" d="M396.4,222.9c0,0,1.9-0.9,3.6-0.6"/>
<line class="st2" x1="396.4" y1="225.9" x2="399.8" y2="225.9"/>
<path class="st2" d="M366.2,343.4c0,0,11.8,1.2,22.1,0.7s15.9,0.1,15.9,0.1s3.3-4.2,3.6-9.1c0.3-4.9,2.3-14.5,2.3-16.9"/>
<path class="st2" d="M415.9,317.3c0,0,2.2,5,3.2,7.4s1.9,5.6,2.6,9.3s3.9,10.3,3.9,10.3s4.4,1,7,0c2.7-1,6.4-2,11.6-1.9
	s8.9,1,15.4-0.1c6.5-1.2,7.8-2.9,7.8-2.9"/>
<line class="st2" x1="463.5" y1="337.2" x2="468.7" y2="334.7"/>
<line class="st2" x1="386.6" y1="347.7" x2="408.5" y2="348.8"/>
<path class="st2" d="M388.8,348.3c0,0-11.6,10.3-12.6,10.6s2.1-6.4,3.1-6.8s1.3,1.5,1.3,1.5"/>
<path class="st2" d="M425.4,348.8c0,0,7.4,0.4,9.3,0.9c1.9,0.4,0.3,1.3,5.5,1.3s9.8,0,9.8,0"/>
<line class="st2" x1="431.8" y1="358.1" x2="433.4" y2="358.9"/>
<path class="st2" d="M432.6,356.5c0,0,8.1,0.9,15.3,4.1s9.3,4,9.3,4"/>
<path class="st2" d="M456.2,351.7c0,0,3.3,11.9,5.2,17.5c1.9,5.6,8.4,27.6,8.9,30.1s2.9,7.9,2.1,9.9l-7.1,2.2c0,0-4.1-2.7-9.8-2.1
	s-11.6,4.3-15.6,5"/>
<path class="st2" d="M442.6,415.3c0,0,8.6-1,11-1.6s9-1.8,9.9,0.7"/>
<path class="st2" d="M472.4,405.2c0,0,4.3,4.1,4.9,6.2"/>
<path class="st2" d="M482.3,406.4l-3.7,0.7c0,0-0.3,4.5-2.4,5.7l-1.4,1.5c0,0-0.5,3-2.3,5.5s-6.3,9.3-6.4,11.3
	c-0.1,1.9,17.5-12.4,17.5-12.4"/>
<path class="st2" d="M472.5,421.9c0,0,3.5,0.1,4.1,3.6"/>
<polyline class="st2" points="378.8,412.9 389.6,420 386.6,423.7 "/>
<path class="st2" d="M392.8,403v2.2l3.3,2.1v3.3c0,0-3.1,0.7-3.3,3.5c-0.1,2.8-0.7,4.5,0.7,4.8c1.5,0.3,0.8-2.5,0.8-2.5"/>
<path class="st2" d="M392.6,421.1c0,0-2.4,3.7-1.7,5.9s0.8,6.6,0.8,6.6"/>
<path class="st2" d="M387.5,349.5c0,0,2.7,38.7,10.1,54.7"/>
<line class="st2" x1="411.8" y1="362.7" x2="396.1" y2="372.5"/>
<path class="st2" d="M418.3,360.5c0,0,7.1,1.3,11.1,4.1s9.6,9.9,9.6,9.9l2.1,2.3c0,0,7,9,13.5,10.3"/>
<path class="st2" d="M432.6,385.8c0,0-1.3-1.9,0.8-2.7c0,0-2.8-5.7,0-6.2s9.2,1.8,9.2,1.8"/>
<path class="st2" d="M410,366c0,0-1.4,3.4-0.6,6.5s2.3,7.1,2.3,7.1"/>
<path class="st2" d="M417.5,381.3c0,0,2.6,2.6,3,5.9"/>
<path class="st2" d="M419,371.7c0,0-1-3.4,0.8-4.2c1.8-0.7,8.6,12.7,8.6,12.7"/>
<path class="st2" d="M396.1,416.3c0,0,11-0.3,13.1-1s3.4-0.9,3.4-0.9"/>
<path class="st2" d="M418.3,412.9c0,0,3.8-2,6.1-1.9"/>
<path class="st2" d="M398.2,416.3c0,0,13.3,5.9,15.3,9.2c0,0-16.9-0.7-17.3,2.4s9.9,2.7,9.9,2.7l7.4,1.9"/>
<line class="st2" x1="419" y1="431.3" x2="421.3" y2="431.3"/>
<path class="st12" d="M446.5,440.8v10.8v7.1c0,0,0.5,2.5,3,2.8s4.8,0.6,6.7,1.8c1.9,1.2,8.3,1.3,8.3,1.3l0.6-4.9
	c0,0,3.3-0.1,5.9,0.9c2.7,1,3.8,6.5,3.8,6.5s2.5,3.2,12.2,2.7c9.6-0.5,29,0,29,0s18.4-1.7,24.7-6.5c0,0,1.5-5.3-1-6.4
	c-2.5-1-2.5-1-2.5-1s-7.6-13.3-24.3-13.8c-11-0.3-12.3,0.6-12.3,0.6l-8.4-10.2v-0.6c0,0-3.9-1.9-8.6-1.9s-8.9,5.8-11.3,6.5
	s-12.6,1.2-16.9,1.6C452.3,438.4,448.4,440,446.5,440.8L446.5,440.8z"/>
<path class="st17" d="M493.9,460.9c0,0-0.5-8.4,1.1-9.3s3.6,1.8,3.6,1.8s1.6-0.9,4.2-0.7c2.7,0.2,4.4,2.2,6.2,0.9
	c1.8-1.3,3.6-6.2,7.3-6.7c3.8-0.4,5.3,1.1,7.8,0s2.5-1.1,2.5-1.1s8.5,6.1,10.7,10.1c0,0-3.6,2.4-10.1,2.6S500.6,461.8,493.9,460.9z"
	/>
<path class="st18" d="M352.3,455.8c0,0-0.9-6.1,4.2-8.1"/>
<path class="st4" d="M376.4,437.8c0,0,7.7,0.2,9.3,1.1"/>
<path class="st4" d="M387.5,436c0,0-2.8,2.5-0.9,5.2c1.9,2.8,2.2,1.4,2.2,1.4s2.6-2,7.3,0.3c4.7,2.3,9.5,7.7,7.9,8.6"/>
<path class="st4" d="M413.4,446.7v3.2c0,0-3.6-1.9-5.8,0c-2.2,1.9-3.3,3.7-3.3,3.7"/>
<path class="st4" d="M406.3,457.8c0,0-0.3-2.9,3.7-4.2c4-1.3,4.6-0.2,4.6-0.2"/>
<line class="st2" x1="446.5" y1="451.6" x2="461.9" y2="455.8"/>
<path class="st2" d="M460.1,460.5c0,0-3.3-0.2-1.6-2.7s11.8-1.6,14,0s2.1,3.3,2.1,3.3"/>
<path class="st4" d="M495.9,461.1c0,0-13.9,1.7-24.8-0.5"/>
<line class="st2" x1="483.4" y1="433.4" x2="488.5" y2="441.3"/>
<path class="st2" d="M459.9,453.6c0,0,0.7-5.9,2-5.9"/>
<line class="st2" x1="463.5" y1="450.6" x2="463.5" y2="448.7"/>
<path class="st2" d="M464.7,449.9c0,0,10.2,0.4,14.7,1.7"/>
<path class="st2" d="M453,448.7c0,0,5.5-3.3,7.8-4.9s5.2-1.8,5.2-1.8"/>
<line class="st2" x1="460.9" y1="444.4" x2="467.5" y2="445.4"/>
<path class="st2" d="M490.5,448.7c0,0-1.6-4,0-4.3s10.1-1.7,10.1-1.7"/>
<path class="st2" d="M477.3,449.7c0,0,1.8-6.3,12.6-8.4c5.4-1,6,0,6,0"/>
<path class="st2" d="M405.3,202.4"/>
<path class="st12" d="M408.5,202l-3.9,0.8l-1.8,0.2l-0.4,0.5l-1.9,6c0,0-0.6,0.7,0,2.3s1.7,4.3,1.7,4.3s0.1,0.8,0.8,0.4
	c0.6-0.4,3.3-2.1,6.1-1.4s2.4,1.8,2.6,1s3-8,3-8s0.3-0.2-0.4-0.9C413.5,206.5,408.5,202,408.5,202z"/>
<g>
	<path class="st19" d="M360.4,152.8c-0.3,3.7-9.8-3.3-13.3-5.5c-5-3.2-15-6.4-16.1-13c-1.1-6.6,1.8-16,11.6-24.6s25.4-0.5,25.4-0.5
		s-2.1-8.5,3-9.9c0,0-5-2.9-1.6-8.3s7.4-8.5,11.7-13.3c4.3-4.8,9.5-8.2,11.9-8c2.4,0.3,1.5,3.1,6.3,2.1c3.9-0.8,2.8-7,13.3-7.6
		c1.7-0.1,2.3,2.3,2.6,4.3c0,0,0.9,0.7,0.6,1.4c-0.3,0.7,1.3,3.8,1.3,3.8l13.3,22.1c0,0,7.8-6.8,12.2-7c4.9-0.2,25.5,9.6,28.9,18.7
		c3.4,9-24.7,30.2-39.8,33.3c-9.8,2-20.4,7.9-42.7-4.6c0,0-11.4-6.9-22.2-0.3C356,142.5,360.4,152.8,360.4,152.8z"/>
	<path class="st4" d="M367.9,109.1c0,0,5.6,1.7,11.8,8.9s14.5,20.6,25.5,23c11.1,2.4,29-2.4,42.2-8.7"/>
	<path class="st20" d="M430.3,95.9l2.6,5c0,0-2.6,4.7-4.2,5.3s-7.1,2.1-7.1,2.1c-5-0.1-14,5.8-16.1,6.2c-2.2,0.4-11.2-1-16.4-2.4
		c-5.2-1.3-12.4,2.9-12.4,2.9c2.7,1.6,11.9,13.2,11.9,13.2l1.2,0.6c4.2,0.6,16.2-0.6,16.2-0.6c2.5-0.6,11.3-0.2,17.4-2.1
		S436,119.6,437,116s-1.1-4.4-1.1-4.4s1.3-0.1,1.1-3.9s-3.9-6.9-3.9-6.9"/>
	<path class="st9" d="M430.3,95.9l2.6,5c0,0-2.6,4.7-4.2,5.3s-7.1,2.1-7.1,2.1c-5-0.1-14,5.8-16.1,6.2c-2.2,0.4-11.2-1-16.4-2.4
		c-5.2-1.3-12.4,2.9-12.4,2.9c2.7,1.6,11.9,13.2,11.9,13.2l1.2,0.6c4.2,0.6,16.2-0.6,16.2-0.6c2.5-0.6,11.3-0.2,17.4-2.1
		S436,119.6,437,116s-1.1-4.4-1.1-4.4s1.3-0.1,1.1-3.9s-3.9-6.9-3.9-6.9"/>
</g>
<line class="st21" x1="438.5" y1="278.9" x2="461.2" y2="280.1"/>
<g>
	<path class="st22" d="M388.9,282.8c-0.3,1.8,0.4,1.9,0.4,1.9c1.5,1.2,6.1,1.1,6-2.8c0-3-1.9-4.5-3.3-4.5c0,0-1.5,0.2-1.8,1.6"/>
	<path d="M389.1,282.8c0,0.5-0.2,1.5,0.3,1.7c1.8,1.2,5.1,0.7,5.6-1.7c0.2-1.1,0-2.3-0.4-3.3c-0.6-1.4-2.3-2.5-3.5-1.5
		c-0.3,0.2-0.5,0.5-0.6,0.9c-0.1,0.3-0.6,0.2-0.5-0.1c0.2-1,1.1-1.6,2-1.7c2.1,0.1,3.3,2.1,3.5,4c0.7,3.8-3.4,5.6-6.3,3.8h0.1
		c-0.9-0.3-0.7-1.4-0.6-2.1C388.7,282.5,389.2,282.6,389.1,282.8L389.1,282.8z"/>
</g>
<path class="st16" d="M395.3,280.9c0,0,0.7,2-0.6,3l4.4,0.8c0,0,0.4-1,0.5-1.9L395.3,280.9z"/>
<g>
	<ellipse class="st20" cx="390.6" cy="281.3" rx="2.2" ry="2.4"/>
	<g>
		<path class="st23" d="M393.1,281.3c-0.1,3.4-4.8,3.4-4.8,0S393,277.9,393.1,281.3L393.1,281.3z M392.6,281.3c0-2.9-3.9-2.9-4,0
			C388.7,284.2,392.5,284.2,392.6,281.3L392.6,281.3z"/>
	</g>
</g>
<path class="st16" d="M406.1,287.9h1.8c0,0,1.8-2.1,1.6-3.2h-2.8"/>
<path class="st16" d="M401.3,282.6c0.7-1,1.7-1.5,2.8-1.3c1.7,0.3,2.8,2.3,2.5,4.5s-2,3.8-3.7,3.6c-0.9-0.1-1.7-0.8-2.1-1.8"/>
<ellipse class="st24" cx="402.4" cy="285.4" rx="1.9" ry="2.5"/>
<path class="st16" d="M389.2,279.5c0,0-1,0.9-0.8,1.8s0.7,1.7,0.7,1.7l-0.3,0.3l-1.5-0.5l0.3-2.4L389.2,279.5z"/>
<g>
	<g>
		<path class="st25" d="M649.8,475.4c-3.4-11.7-6.8-23.4-10.2-35c2.6,1.5,5.2,2.9,7.8,4.2c2,7.7,5.2,20.3,6,26c0,0,0.1,0,0.1,0.1
			c0.5-5.4,2.5-15.3,3.6-21.8c2.5,0.9,4.8,1.7,7.2,2.4c2.3,7.9,5.9,19.3,7.2,26.2c0,0,0.1,0,0.1,0.1c0.3-5.8,1.6-16.4,2.6-23.8
			c2.5,0.5,4.9,0.9,7.5,1.2c-2,10.6-4.1,21-6,31.1c-2.5-0.7-5.1-1.4-7.5-2.3c-2.2-7.9-5.5-19-7.1-25.4H661
			c-0.7,5.9-2.7,14.8-3.8,20.9C654.7,478,652.2,476.7,649.8,475.4z"/>
		<path class="st25" d="M694.3,479.6c-0.5,3.2-1.1,6.3-1.6,9.5c-2.5-0.3-4.9-0.6-7.4-1.1c2.2-10.5,4.5-21.3,7-32.3
			c3.4,0.1,7,0.1,10.4,0c3.6,11.3,7.2,22.6,10.7,34.1c-2.5,0.1-5.1,0.1-7.5,0.1c-1-3.3-1.9-6.6-2.9-9.9
			C700,480,697.2,479.9,694.3,479.6z M702,475.8c-1.8-6.5-3.4-12.1-4.1-15.7c-0.1,0-0.1,0-0.3,0c-0.1,2.7-1.5,10.1-2.5,15.5
			C697.3,475.7,699.6,475.8,702,475.8z"/>
		<path class="st25" d="M716.6,454.5c2.5-0.3,4.9-0.7,7.4-1.1c0.4,10.4,0.7,20.8,1.1,31.3c4.5-0.5,9-1.2,13.5-2.1
			c-0.1,1.5-0.4,3-0.5,4.5c-6.7,1.2-13.4,2-20.1,2.5C717.4,477.9,717,466.2,716.6,454.5z"/>
		<path class="st25" d="M741.5,449.6c2.5-0.6,4.9-1.3,7.4-2c0.3,10.9,0.4,21.8,0.7,32.7c4.5-1,9-2.1,13.5-3.3
			c-0.3,1.6-0.4,3.2-0.7,4.8c-6.7,1.7-13.4,3.2-20.1,4.5C742,474,741.7,461.8,741.5,449.6z"/>
		<path class="st25" d="M766.3,442.3c3.8-1.2,7.5-2.5,11.3-3.7c8.5-2.9,12.7-1.2,12.7,5.6c0,0.8,0,1.6,0,2.4c0,6.4-2.9,11.7-13,14.7
			c-1.1,0.3-2.3,0.7-3.4,1c0,5.5,0,11,0.1,16.5c-2.5,0.7-4.8,1.3-7.2,1.9C766.5,467.9,766.5,455.1,766.3,442.3z M773.7,458
			c1-0.3,1.8-0.5,2.7-0.8c5.6-1.7,6.6-4.5,6.6-8.4c0-0.7,0-1.3,0-2c0-3-0.8-5.3-5.9-3.6c-1.1,0.4-2.2,0.7-3.4,1.1
			C773.7,448.8,773.7,453.4,773.7,458z"/>
		<path class="st25" d="M802,459.3c-0.8,4.1-1.5,8.3-2.3,12.4c-2.5,0.7-4.9,1.3-7.4,2c3-14.2,6-28.6,9-43.1c3.4-1.1,7-2.3,10.4-3.3
			c2.9,12.9,5.7,26,8.6,39.3c-2.5,0.6-5.1,1.2-7.5,1.8c-0.7-3.8-1.5-7.6-2.2-11.4C807.7,457.6,804.9,458.4,802,459.3z M809.8,452
			c-1.4-7.5-2.6-13.9-3.1-18c-0.1,0-0.1,0.1-0.3,0.1c-0.3,3.4-2,12.9-3.4,19.9C805.1,453.3,807.5,452.6,809.8,452z"/>
		<path class="st25" d="M825.6,423.1c3.8-1,7.5-2,11.3-2.8c8.5-1.9,12.6,0.9,12.3,8.4c0,0.9,0,1.8-0.1,2.6
			c-0.1,7.1-3.1,12.1-13.3,13.9c-1.1,0.2-2.3,0.5-3.4,0.7c-0.1,6.1-0.3,12.1-0.4,18.2c-2.5,0.4-4.8,0.9-7.2,1.4
			C825.1,451.4,825.4,437.2,825.6,423.1z M832.6,441.2c1-0.2,1.8-0.4,2.7-0.6c5.6-1.1,6.6-3.9,6.7-8.3c0-0.7,0-1.5,0-2.2
			c0.1-3.3-0.7-6-5.7-4.9c-1.1,0.2-2.2,0.5-3.4,0.8C832.7,431,832.7,436.1,832.6,441.2z"/>
		<path class="st25" d="M873.6,439.8c-4-0.1-8.1-0.1-12,0.1c-0.1,5.2-0.3,10.3-0.5,15.5c4.5-0.1,9.2-0.1,13.7,0.2
			c-0.4,1.9-0.8,3.7-1.1,5.6c-6.7-0.5-13.3-0.4-20,0.1c0.4-14.8,0.8-29.6,1.4-44.3c6.7-0.9,13.4-1.4,20.2-1.4
			c-0.1,1.9-0.1,3.8-0.3,5.7c-4.2-0.1-8.5,0.1-12.8,0.4c-0.1,4.2-0.3,8.5-0.4,12.7c4-0.2,8.1-0.3,12-0.2
			C873.7,436.1,873.6,438,873.6,439.8z"/>
		<path class="st25" d="M887,441.6c-0.3,7-0.5,14.1-1,21.1c-2.5-0.4-4.8-0.8-7.2-1c0.5-15.3,1.2-30.6,1.8-46c3.6,0.2,7.2,0.5,10.8,1
			c8.3,1.2,12.7,5.6,12.3,13.8c0,0.7,0,1.3-0.1,2c-0.3,6.9-3.6,8.2-6,8.4c3.3,2,4.8,4.7,4.5,11c-0.1,4-0.7,11.6-0.1,14.7
			c-2.3-0.8-4.6-1.5-7-2.1c-0.5-3.1-0.1-10.8,0.1-14.2c0.3-5.8-0.5-7.6-5.6-8.5C888.8,441.9,888,441.7,887,441.6z M887.3,436.4
			c0.8,0.1,1.8,0.3,2.6,0.4c4.8,0.8,6.3-0.7,6.6-5.8c0-0.6,0-1.2,0.1-1.8c0.1-3.9-0.8-6.6-5.9-7.3c-1-0.1-1.8-0.3-2.7-0.4
			C887.7,426.5,887.5,431.5,887.3,436.4z"/>
		<path class="st25" d="M913.4,457c0,1-0.1,1.9-0.1,2.9c-0.3,4,1.1,6.7,4.5,8.4c3.6,1.8,4.8-0.2,5.1-4.3c0.3-5.4-1-8.1-6.4-14.8
			c-5.6-6.6-8.6-10-8.2-17.1c0.3-6.1,2.7-11.9,12.2-8c9.3,4.3,10.8,11.5,10.4,17.1c0,0.8-0.1,1.6-0.1,2.5c-2.5-1.4-4.8-2.7-7.2-4
			c0-0.8,0.1-1.5,0.1-2.3c0.1-3.6-0.4-6.3-3.6-7.8c-3.1-1.4-4.1,0.8-4.2,4.2c-0.1,3.9,0.5,5.8,5.2,11.3c7.7,9.2,9.8,14,9.4,22.1
			c-0.4,7-3.3,11.4-12.8,6.4c-9.4-4.6-11.6-10.4-11.2-16.7c0-0.9,0.1-1.9,0.1-2.8C908.6,455,910.9,455.9,913.4,457z"/>
	</g>
</g>
<path class="st25" d="M255.2,283.1c-9.6-18.4-36.6-31-78.3-26.7c-41.7,4.3-57.9,34.2-58.4,54.6c-0.4,20.4,17.6,37.4,53.7,59.5
	c36.1,22,13.5,42.3-5.6,42.3s-47.6-9.9-37-28.1c10.5-18.2,16.3-35.8-16.5-36.3c-32.9-0.5-90.6,22-78.3,86.5
	c14.6,76.4,140.9,70.9,194.5,38.2c53.6-32.8,35.5-101.5,4.5-121.6s-51.9-29.8-51.9-44.1c0-14.3,9.6-21.2,22-20
	c0,0,13.4,1.2,8.5,11.4c-9.4,4.6-14.8,11.7-12.3,18.3c3.3,9,19.4,13.8,36.1,10.5c8.7-1.7,15.3-5.9,19.1-10.9l0,0c0,0,0-0.1,0.1-0.1
	C262.5,303.8,261.4,295.1,255.2,283.1z"/>
<path class="st25" d="M402.9,305.9c-15.9-0.4-20,7-25.7,8.3c-5.6,1.2-5.6-3.5-7.1-6.6c-1.4-3.1-4.5-2.3-7.1-1
	c0,0-20.9,11.1-25.7,22.7c-3,7.4,6.1,3.3,6.1,3.3c1.6,1.9,1.1,22.9-13,22.9s-6.8-21-1.1-33c5.6-11.9,6.1-26-9-15.9
	c-15.2,10.2-14.6,49.7-24.2,48.8c-9.6-0.8-8.5-16.1-8.5-16.1s17.5-26.4,2.3-26.5c-15.2-0.1-40,19-40.6,30.4
	c-0.5,11.4,13.9,12.1,13.9,12.1s2.5,20.2,22.8,20.4c20.4,0.2,23.1-13.6,23.1-13.6s3.1,7,14.9,7.6c11.9,0.6,18.6-6.8,18.6-6.8
	c-6.8,16.1-26,13-37.2,34.7c-11.3,21.7-5.2,57.1,42.9,57.6c33.3,0.3,48.2-19.4,45.4-44.4c-2.9-25-21.5-62.9-15.9-54.3
	c5.6,8.7,29.9,8.9,40-9.9C428.2,328,418.7,306.3,402.9,305.9z M344.9,415c-9.3,0.6-13.4-10.9-13.5-14.5c-0.1-4.6,2.6-9.7,10.9-15.6
	c4.5-3.1,7.2-6.7,7.2-6.7c1.9,8.8,3,14.1,6,23.4C357.6,408,354.2,414.4,344.9,415z M381.8,348.2c-8.5-2.5-5.1-12.6-5.1-12.6
	c8.7-4.3,15.9,3.1,15.9,3.1C394.2,340.1,390.2,350.7,381.8,348.2z"/>
<path class="st25" d="M933.3,295.8c-7.7-36-65.3-20.3-93.5-10.1c-18.4,6.7-71.2,33.1-73.8,29.7c-19-16.1,34.3-71.2,0-68.7
	c-25.4,1.5-3,42.1-22.4,44.9c-21.3,3-9.3-22-24.1-20.7c-8.9,0.9-19.4,24.4-36.4,32.1c-16.9,7.7-13.1-1.5-13.1-1.5
	c38.9-26.9,84.2-92.5,36.8-97.5c-47.4-5-65.6,89.7-65.6,89.7s-57.9,65-61.8,62.8s7.7-32.8,7.7-32.8s15.6-8.7,40.6-37.1
	c25-28.5,27.5-65.8,10.7-96.7c-16.9-30.9-65.6-31.2-82.1-0.8c-22.1,41-3.4,68.4,6.8,103c2.2,7.7,6.3,22.6-8.9,30.6
	s-16.9-5.3-10.5-10.7s20.4-20.9,8.9-25.4s-19.4,5.1-26.6,5.7c-7.2,0.5-11.5-2.7-22.8,1.2c-11.5,3.9-9.7,5.7-8.1,9.4
	c1.6,3.7,5.5,5.9-3.8,22.1s-27.5,9.1-27.5,9.1c47.8-39.4,1.2-58.7-21.2-34.2c-22.4,24.4-12.3,45.6,0,51.1c14.8,6.5,38,4,51.1-11.4
	c13.1-15.5,7.7-30,20.8-30s-26.6,26.3-7.2,42.4s51.1-12.7,51.1-12.7s4.6,29.1-24.1,56s-49.5,64.7-4.6,70.9s32.9-59.6,44.4-79.2
	c11.5-19.5,42.8-51.7,76.1-65.3c0,0-0.8,11.8,20.8,10.8s43.2-34.3,43.2-34.3s-7.2,18.1,8.9,20.4c19,2.8,22.4-12.4,22.4-12.4
	s3.8,5.6,0.8,10.8c-3,5.3-4.6,9.6-4.6,9.6s-44.4,13.6-69.3,39.9c-35,36.9,0.8,83.5,64.2,58.2c63.4-25.4,43.2-90.7,43.2-90.7
	s8.9-8.7,48.2-17.3c37.3-8.2,51.7,7.2,74.1,6C921.6,321.8,935.9,308,933.3,295.8z M597,229.8c11.5,0,19,10.8,15.4,26.8
	c-4.2,18.8-22.7,40.1-22.7,40.1c5.1-16.7-1.5-32.2-4.5-44.1C582.4,240.6,585.5,229.8,597,229.8z M453.6,326.3c0,0-3.4-13.7,9.7-14.1
	S453.6,326.3,453.6,326.3z M663.8,278c-1.2-15.2,12.3-42.1,25.4-36.8C702.2,246.5,663.8,279.3,663.8,278z M711.5,384.8
	c-11.5-14.9,35.9-38.7,35.9-38.7C755.9,372.7,718.8,394.1,711.5,384.8z"/>
<path class="st16" d="M409.5,304.6h6.1l4.2,169.5c0,0-0.2,0.7-1.5,0.7s-2-0.7-2-0.7L409.5,304.6z"/>
</svg>
