<?xml version="1.0" encoding="utf-8"?>
<!-- Generator: Adobe Illustrator 27.7.0, SVG Export Plug-In . SVG Version: 6.00 Build 0)  -->
<svg version="1.1" id="Layer_1" xmlns="http://www.w3.org/2000/svg" xmlns:xlink="http://www.w3.org/1999/xlink" x="0px" y="0px"
	 viewBox="0 0 330.7 305.8" style="enable-background:new 0 0 330.7 305.8;" xml:space="preserve">
<style type="text/css">
	.st0{fill:#745CA7;stroke:#040404;stroke-width:1.5636;stroke-miterlimit:10;}
	.st1{fill:#FFFFFF;stroke:#010101;stroke-width:0.5;stroke-linecap:round;stroke-linejoin:round;stroke-miterlimit:10;}
	.st2{fill:none;stroke:#010101;stroke-width:0.5;stroke-linecap:round;stroke-linejoin:round;stroke-miterlimit:10;}
	.st3{fill:#504E4D;stroke:#010101;stroke-linecap:round;stroke-linejoin:round;stroke-miterlimit:10;}
	.st4{fill:none;stroke:#010101;stroke-width:0.9999;stroke-linecap:round;stroke-linejoin:round;stroke-miterlimit:10;}
	.st5{fill:#504E4D;stroke:#010101;stroke-width:0.9999;stroke-linecap:round;stroke-linejoin:round;stroke-miterlimit:10;}
	.st6{fill:#504E4D;stroke:#010101;stroke-width:0.5;stroke-linecap:round;stroke-linejoin:round;stroke-miterlimit:10;}
	.st7{fill:none;stroke:#010101;stroke-width:0.5;stroke-miterlimit:10;}
	.st8{fill:#010101;}
	.st9{fill:#E52328;stroke:#010101;stroke-width:0.9999;stroke-miterlimit:10;}
	.st10{fill:none;stroke:#010101;stroke-width:0.75;stroke-miterlimit:10;}
	.st11{fill:#E52328;stroke:#010101;stroke-width:0.9999;stroke-linecap:round;stroke-linejoin:round;stroke-miterlimit:10;}
	.st12{fill:#FFFFFF;stroke:#010101;stroke-width:0.5;stroke-miterlimit:10;}
	.st13{fill:#B6872D;stroke:#010101;stroke-width:0.9999;stroke-linecap:round;stroke-linejoin:round;stroke-miterlimit:10;}
	.st14{fill:#FFFFFF;}
	.st15{fill:#6CBE46;stroke:#040404;stroke-width:0.7818;stroke-miterlimit:10;}
	.st16{fill:#B6872D;stroke:#010101;stroke-width:0.5;stroke-linecap:round;stroke-linejoin:round;stroke-miterlimit:10;}
	.st17{fill:#552E8E;stroke:#040404;stroke-width:1.5636;stroke-miterlimit:10;}
	.st18{fill:#552E8E;stroke:#040404;stroke-miterlimit:10;}
	.st19{fill:#6CBE46;}
	.st20{fill:none;stroke:#040404;stroke-width:1.3;stroke-miterlimit:10;}
	.st21{fill:#B6872D;}
	.st22{fill:#040404;}
	.st23{fill:#6CBE46;stroke:#040404;stroke-width:0.5;stroke-miterlimit:10;}
</style>
<path class="st0" d="M230.7,248.6c0.7-1.5,6.1-1.3,6.1-1.3s11.7,0.9,12.7-0.9s1.2-8.9,1.6-10.4s-2.2-10.8-4.1-12.9s0-5-2.2-8.1
	s-0.1-8.9-0.1-8.9s1.1-1.5,1-3.3s-4.3-5.9-4.3-5.9s4-4.1,3-5.9c-0.9-1.5,1-8.9,1.3-12.6c0.1-0.6,0.1-1.2,0-1.5
	c-0.4-2.4,2.5-10.7-3.4-10.2c-5.9,0.4-27.4-3.3-29.9-4.3s-5-1-5-1l-4.2-0.9c0,0-3,4-9.1,5s-8,2.1-8,2.1s-8.6,3.5-17.4,2.3
	c-8.9-1.2-13.5-4.8-13.5-4.8s-9.7,2.7-12.9,3.9c-1.3,0.5-1.9,1.2-2.4,2.1c-0.8,1.3-1.2,2.7-3.2,3.6c-3.3,1.5-23.1,5.9-23.1,5.9
	s0.3,9.5,3.3,15.1s3,5.6,3,5.6s-0.4,0.4-1,1c-1.1,1.1-2.8,2.9-2.8,4.1c0,1.8,6.5,5,6.5,6.2s-3.9,5.6-3,12.7c0.9,7.1-0.9,24,9.5,34.1
	l13.3-5"/>
<path class="st1" d="M162.9,168.8c0,0,0.8,9.2,0.7,9.6c-0.1,0.4,1.1,12.8,2.4,14.9c1.3,2.1,3.9,13.7,5.3,16.2
	c1.5,2.5,5.7,9.6,5.7,9.6l3.6-0.2h11.7c0,0,0.7-0.9,1.7-5.4c1-4.4,4.8-26.1,4.8-26.1s0.2-12.6-0.8-16.1s-5.2-5.5-5.2-5.5
	s-3.1,0.8-6.8,1.9C182.4,168.7,174.3,172.5,162.9,168.8z"/>
<path class="st2" d="M162.9,221.3l3.5,0.4v-1.3c0,0-2.4-1.6-6.4-5.1s-9.3-15.8-12-21.3c-2.6-5.6-1.4-7.8-1.4-7.8l4.9-0.9l2-4.9
	c-2-3.1-6.6-3.3-6.6-3.3s-0.7-4,0-5.8s9.5-4.9,9.5-4.9"/>
<path class="st3" d="M161.1,250.6c0,0,0.6,5.9,1.3,8.2s1,3.3,1.1,5c0.1,1.6,0.4,4.2,2.5,4.3c2.1,0.1,3.9-6.4,3.9-6.4s2.1,3.5,3,5
	c0.8,1.5,2.1,2,3,1.9s3-4.9,2.9-6.1s1.6-6.5,2.3-7.1c0,0,1.4-4.2,3.2-5.1s5.3-1.9,5.3-1.9s4.1-0.1,5.9,0c1.7,0.1,3.6-0.7,3.5-2
	s-1.3-3-1.3-3s-6.4-4.4-7.5-4.8s-1-1.3-2.9,0.9s-3.8,1.7-6.2,1s-3.1-2.4-5.5-2.3s-5.6,0-5.6,0v2.5l-4.7,4.2l-4.1,1.8
	C161.1,246.3,160.5,248.9,161.1,250.6z"/>
<g>
	<g>
		<path class="st4" d="M153,166c0,0-3.6,1.3-10.5-10.2c-6.8-11.5-16.8-47.2,1.2-53.8"/>
		<path class="st5" d="M153,166c0,0-3.6,1.3-10.5-10.2c-6.8-11.5-16.8-47.2,1.2-53.8"/>
		<path class="st6" d="M156.6,91.3c0,0,1-1.6,4-1.6s8.3,0.4,13.8,0c5.4-0.4,10.9-1.3,13-1.4s6.6,0,9.6,1.5s4.9,4,4.9,4
			s-3.9,0-6.1,1.4c0,0,0.9,1.7,2.7,2.1c1.8,0.4,10.4,4.4,11.9,7.3c1.4,2.9,1.9,5.4,1.9,5.4s1.4,0,2,1.1c0.8,1.6-0.4,4.4-0.7,6.4
			c-0.2,2-0.2,3.8,2.3,5.9c2.6,2.1,0.7,3.8,0.7,3.8s3.1,1.6,3.3,3.3s0.2,4.4-2.6,4.7c0,0,2.3,1.6,2.1,5.9c-0.2,4.3-1,10-2.3,10.8
			s-1.3,0.8-1.3,0.8l-0.6,0.6c0,0,5.5,0.8,5.5,3.7c0,0,0.6,3.8-9.7,4.2c-0.8,0-1.6,0-2.5,0c0,0-3.2,0-5.3-0.9c0,0-3.7,5.6-14.4,5.6
			c0,0-6.7,3.4-20,3.9c-26.9,1-32.7-16.4-29.2-32.1"/>
		<path class="st5" d="M188.6,166c0,0-6.7,3.4-20,3.9c-26.9,1-32.7-16.4-29.2-32.1"/>
		<path class="st2" d="M173,95.5c0,0-1-2.2,1.6-2.6s2,0.8,3.4,0.8s5.4-1,13.6,3.6c8.1,4.6,15.7,13.7,15.7,13.7h-1.7
			c0,0-5.2-8.7-15.6-11.2c-10.3-2.6-13.4-3.7-13.4-3.7s1.2,2.9,1.2,4s0,0,0,0S176.4,97.2,173,95.5"/>
		<ellipse class="st7" cx="209.7" cy="157.1" rx="10.9" ry="4.3"/>
		<ellipse class="st8" cx="209.9" cy="157.6" rx="6.8" ry="1.8"/>
		<path class="st9" d="M185.4,116.3c3,16-4.9,28.9-17.3,31.2s-24.5-6.8-27.5-22.8s4.6-30.9,17-33.2
			C169.9,89.3,182.4,100.3,185.4,116.3z"/>
		<path class="st10" d="M186,119.9c3.4,18-4.3,32.2-16.7,34.6c-12.4,2.3-24.7-8.1-28.1-26.1s3.9-34.4,16.3-36.8
			C169.9,89.3,182.7,101.9,186,119.9z"/>
		<path class="st11" d="M201.8,93.8c0,0-3.9,0-6.1,1.4c0,0,0.9,1.7,2.7,2.1c1.8,0.4,10.4,4.4,11.9,7.3c1.4,2.9,1.9,5.4,1.9,5.4
			s1.4,0,2,1.1c0.8,1.6-0.4,4.4-0.7,6.4c-0.2,2-0.2,3.8,2.3,5.9c2.6,2.1,0.7,3.8,0.7,3.8s3.1,1.6,3.3,3.3s0.2,4.4-2.6,4.7
			c0,0,2.3,1.6,2.1,5.9c0,0,6.5-1.9,6.4-10.3c0-0.6-0.3-0.3-0.8,0.5c0.8-4.2,0.7-10-1.4-18C218.8,95.7,201.8,93.8,201.8,93.8z"/>
		<path class="st10" d="M188.6,166c0,0,6.3-4.4,7.3-13.7c0.9-8.5-1.4-12.7-2.7-13.7"/>
		<path class="st10" d="M206.1,152.8c1.7-4.1,1.6-8,0-11.7"/>
		<path class="st7" d="M214.2,141.1c1.6,3.7,1.1,8-0.4,11.7"/>
		<path class="st7" d="M204.7,141.7c0,0,2.8-1.9,5.8-1.9s5.6,2.9,5.6,2.9"/>
		<path class="st2" d="M217.3,135.3c0,0-3,0.3-5,0s-2.8-1.1-6.2,1.3c-3.4,2.4-8.9,1.2-9.9-8s3.8-14.2,3.8-14.2"/>
		<path class="st7" d="M202.2,113.5c0,0-0.4,1.3,0,1.8c0.4,0.6,1.3,1,2.2,0.2c0.9-0.8-0.2-2.7,1.7-2.3s0.8,2.8,0,4.2
			c-1.8,3.3,0.4,12.5,4,11c3.1-1.9-3.4-5.6-1.8-11.3c1.3-4.5,0-5.8-2.2-6.1C203.8,110.6,202.9,111.7,202.2,113.5z"/>
		<path class="st7" d="M212.2,110.1c0,0-1.8,0.1-2.4,1.6c-0.7,1.6,0.7,2.4,0.7,2.4s0.2-1.6,1.8-1.6s-2.8,3.8-1.3,9.1
			s3.4,6.9,5.6,5.7"/>
		<path class="st12" d="M169.3,98.8c1.9-1.7,6.1,1.7,7.9,8.1c1.8,6.4,3.8,11.8,0.8,12.8s-1.6-3.8-3.6-8
			C172.4,107.5,165.6,102.1,169.3,98.8z"/>
		<path class="st12" d="M214.6,101.9c-1.5,0.2-1.8,4.3,0,5.7s2.9,4,3.6,5.8s1.4,2.8,3.6,1.9c2.1-0.9-0.6-6.7-2.6-9.2
			C217.2,103.5,217.1,101.5,214.6,101.9z"/>
		<path class="st4" d="M164.6,91.9c0,0-16.7,4.8-22.3,37.4"/>
		<path class="st4" d="M167.3,103.1c0,0-17.8,11.7-17.4,34.6"/>
		<path class="st4" d="M174.3,115.6c0,0-13.8,10.7-12.8,27.1"/>
		<path class="st4" d="M143.5,106c0,0,28.4,10.7,36,29.8"/>
		<path class="st4" d="M140.4,122c0,0,25.4,5.3,31.9,24.2"/>
		<path class="st4" d="M182.9,109.7c0,0-2.8,1.4-4.1,3"/>
		<path class="st4" d="M175.4,98.4c0,0-1.8-0.3-3,0.7"/>
		<path class="st4" d="M152.4,93.8c0,0,7.6-1.6,15.8,4.6"/>
		<path class="st4" d="M180.8,115c0,0,4.3,4.8,4.9,12.3"/>
		<g>
			<path class="st8" d="M158.6,97.7c-7.2,8.4-10.4,21,0.2,28.1l0.7,0.5c0.7,0.3,1.5,0.8,2.3,1.1l1.6,0.5c1,0.2,2.3,0.4,3.3,0.3
				c4.5-0.2,8.7-2.5,11.9-5.5c0.2-0.2,0.4-0.2,0.6,0s0.1,0.4,0,0.6c-3.5,3.1-7.8,5.4-12.5,5.5c-1,0-2.5-0.2-3.5-0.4l-1.7-0.6
				c-0.8-0.3-1.6-0.8-2.3-1.2c-0.7-0.5-1.4-1-2.1-1.6C148,117.5,151.7,105.5,158.6,97.7L158.6,97.7z"/>
		</g>
		<path class="st2" d="M180.8,93.6c0,0,5.7-0.3,7.8,0c2.1,0.3,3.4-0.8,7.1,1.6"/>
		<path class="st2" d="M187.7,93.8c0,0,1.8-0.1,4.7,2.2c2.9,2.3,3.5,3.5,6.5,3.8s9.8,4.1,10.7,6.7c0.9,2.6,1.4,4,1.4,4
			s-1.4-0.3-1.4,2.2"/>
		<path class="st2" d="M197.7,99.6c0,0,6.3,2.9,8.4,4.9s3.7,6.1,3.7,6.1"/>
		<path class="st5" d="M219.4,141.2c7.3-3,6.1-10.6,6.1-10.6l-0.5,0.8c-2.8,3-5.1,0.9-5.1,0.9s0.2,0.9-0.5,1.9
			c-0.8,1-1.6,1.1-1.6,1.1v0.5C217.8,135.8,219.7,137.8,219.4,141.2"/>
		<path class="st2" d="M204.7,94.4c0,0-3.1,1.3-2.7,4.4"/>
		<path class="st2" d="M225.3,122c0,0,0.9,3.7-9.4,1.6"/>
		<path class="st2" d="M199.3,94.4c0,0,9.9,2.1,13.7,7.4"/>
		<path class="st2" d="M221.7,115.3c0,0,2.4,8.9,0,16.7"/>
		<path class="st2" d="M213.4,109.1c0,0,4.8,5.8,4.6,14v5.2"/>
	</g>
	<path class="st2" d="M213.4,99c0,0-2.2-0.8-3.5,4.1"/>
</g>
<g>
	<path class="st13" d="M118.8,202.3c0.5,0.6,1-1,1-1s0,0-3-5.6s-3.3-15.1-3.3-15.1s19.8-4.4,23.1-5.9c2-0.9,2.4-2.3,3.2-3.6
		c0,0-35-66.9-58.8-85.2S44.1,60.1,31.2,60.1s-3.1,10.2-3.1,10.2s-2.4,1.1-0.2,6s2.2,8.2,2.2,8.2s-2.9,4,1.6,8.2c0,0-4,1.9,2,12.3
		c0,0-3.3,5.9,0.7,10.5s6.4,6.4,5.8,11.7c-0.7,5.3,1.3,6.8,2.7,8.1c1.3,1.2,4,6.4,5.8,10.9s14,10.5,16.2,13.2
		c2.2,2.7,9.6,12.4,14.4,13.8s10.9,8.9,14.2,12.4c3.3,3.6,11.8,10,15.8,10.7C113.3,197,116.2,199.3,118.8,202.3z"/>
	<g>
		<path class="st14" d="M120.4,200.2L120.4,200.2L120.4,200.2z M34.6,96.4c-0.1,0.3-1,2.4,2.7,8.9c0.4,0.7,0.4,1.6,0,2.3
			c-0.1,0.2-2.4,4.5,0.4,7.6c0.5,0.5,0.9,1.1,1.4,1.5c3.2,3.6,5.6,6.2,4.9,11.8c-0.5,3.7,0.6,4.7,1.7,5.7l0.2,0.2
			c2,1.8,4.9,8,6.2,11.6c0.8,2.1,6,5.5,9.5,7.8c3.1,2,5,3.3,6,4.5c0.3,0.3,0.6,0.8,1,1.3c2.3,2.9,8.5,10.5,11.9,11.5
			c4.6,1.3,9.6,6.8,13.2,10.8c0.7,0.8,1.3,1.4,1.8,2c3.4,3.7,11.2,9.3,14.2,9.8c1.5,0.3,3,0.7,4.4,1.4c-2.6-5.9-2.8-14.2-2.9-14.5
			c0-1.1,0.7-2.1,1.8-2.3c7.4-1.7,20-4.7,22.2-5.7c0.7-0.3,1-0.7,1.4-1.4c-4.6-8.6-35.4-65.5-56.4-81.6C56,71.1,44.1,64.8,32.8,64.8
			c-3.1,0-4.1,0.7-4.2,0.9c-0.3,0.8,1.1,3.4,2.8,5.2c0.5,0.5,0.7,1.3,0.6,2c-0.1,0.6-0.5,1.2-1,1.5c-0.1,0.2-0.2,1.2,0.6,3
			c2.4,5.2,2.4,8.9,2.4,9c0,0.5-0.2,0.9-0.4,1.3s-1.4,2.5,1.2,5.1c0.6,0.5,0.8,1.3,0.7,2C35.5,95.4,35.1,96,34.6,96.4z M34.3,96.5
			L34.3,96.5L34.3,96.5z M34.3,96.5L34.3,96.5L34.3,96.5z M34.3,96.5 M30.8,74.5L30.8,74.5L30.8,74.5z M30.8,74.5L30.8,74.5
			L30.8,74.5z"/>
	</g>
	<path class="st4" d="M35.3,60.4c0,0,0.2,4,4.4,6.6c4.2,2.7,20.4,12.9,20.4,12.9s2.6,1.9,6.4,0c0,0,20.4,12,27.3,21.9
		s13.8,21.2,13.8,21.2l17.3,27.5l13.8,22.3"/>
	<line class="st4" x1="66.6" y1="79.9" x2="46" y2="63.3"/>
	<path class="st4" d="M61.5,80.5c0,0-2,0.5-2.7,1.8s10.4,9.6,12.9,11.1c2.4,1.5,3.8,3.6,6.4,6.1c2.7,2.5,11.1,4.1,12.7,6.4
		c1.6,2.3,8.7,11.9,10.4,12.9c1.8,1,4,2,4,2l2.6-3.4"/>
	<path class="st4" d="M121.4,138.6c0,0-2.1,3.3-4.5,4.1s-9.3-8-12.9-11.4s-12.8-13.9-16.9-14.6c-4-0.7-7.8-3.9-9.8-7
		s-10.4-11.9-10.7-13s-1.6-1.3,1.8-2.2s1-2.6,1-2.6"/>
	<path class="st4" d="M28.2,70.4c0,0,3.3-1.1,6.2,0S42.5,76,46,76.6c3.5,0.7,5.1,0.7,7.1,2s5.8,3.8,5.8,3.8"/>
	<path class="st4" d="M30.1,83.2c0,0,3-1.3,7.2,0s10.4,5.3,12.9,5c2.4-0.3,6.7,1.8,9.6,3.1c2.9,1.3,8.7,3.1,8.7,3.1"/>
	<path class="st4" d="M31.7,92.8c0,0,7.8-0.1,11.8,1.6s11.8,4.9,12.8,5.2s11.4,8.3,13.4,9.1s8.7,2.5,8.7,2.5"/>
	<path class="st4" d="M33.7,105.1c0,0,2-2,6.2,1s15.1,8.3,18.9,9c3.8,0.7,7.6,4.5,9.6,4.8s4.4,0,4.4,0"/>
	<path class="st4" d="M116.8,142.7c0,0-4.2-0.1-4.2,3.6c0,3.6,6,9,7.1,13.2s4,11,5.6,13.4s1.6,2.6,6,1.3c4.4-1.3,5.4,0.5,5.4,0.5"/>
	<path class="st4" d="M77.2,110.9c0,0-5,1.3-5.2,3.6s0.4,5.6,4.4,9.8c4,4.1,2.7,10.1,4.7,11.1s5.1,0.3,10.7,7.3s23.1,20.1,25.6,21.4
		c2.4,1.3,4.8,2.2,4.8,2.2"/>
	<path class="st4" d="M37.4,118.9c0,0,12.1,3,15.9,5.3c3.8,2.3,10,3.4,12.9,4.9c2.9,1.5,5.7,2.8,5.7,2.8"/>
	<path class="st4" d="M40.1,129.2c0,0,0.2,4.5,5.9,4.9c5.8,0.4,7.1-0.6,10.3,1.8c3.2,2.4,12.2,8.2,14,7.7"/>
	<path class="st4" d="M79.7,131.9c0,0-7-2.7-8.8,1.3c0,0,3.2,4.3,2,6.6c-0.7,1.2-4.7,3.7-0.9,6.5s12.3,5.8,15.2,11.4
		c2.9,5.6,3.8,7.4,3.8,7.4s7.1,4.3,13.3,7.8s14.5,6.5,14.5,6.5"/>
	<path class="st4" d="M90.1,163.6c0,0-4-0.4-7.9,2.4c-3.8,2.8-3.9,5.9-3.9,5.9s7.5,3.6,11.7,5.3c4.3,1.8,18.3,7.3,20.3,9.8
		c2,2.4,5,5.2,5,5.2"/>
</g>
<path class="st13" d="M226.5,130.7c0,0,3.1-18.3,31.7-52.8c27.3-33,44-35.8,50.4-28.2c0,0,2,2.7-2.9,5.8c0,0,0.9,2.1,0.7,4.9
	s-2.9,4.9-2.9,4.9s2.2,2.2,1.6,6c-0.7,3.8-2.9,6.7-2.9,6.7s3.1,0,1.8,5.3c-1.3,5.3-3.8,5.9-3.8,5.9s2,4.8,1.1,8.6
	c-0.9,3.8-3.8,7.4-3.8,7.4s3.1,0.1,1.3,5.8c-1.8,5.7-7.6,15.3-7.6,15.3s4,2.3-2,8c-6,5.8-18.4,23.5-18.4,23.5s-19.7,19-25.3,20.7
	l0,0c0.1-0.6,0.1-1.2,0-1.5c-0.4-2.4,2.5-10.7-3.4-10.2c-5.9,0.4-27.4-3.3-29.9-4.3s-5-1-5-1h1.1c0.9,0,1.7,0,2.5,0
	c10.3-0.4,9.7-4.2,9.7-4.2c0-2.9-5.5-3.7-5.5-3.7l0.6-0.6c0,0,0,0,1.3-0.8s2.1-6.4,2.3-10.8c7.3-3,6.1-10.6,6.1-10.6L226.5,130.7
	L226.5,130.7z"/>
<g>
	<path class="st14" d="M242.6,164.3c2.1,0,3.3,0.8,4,1.6c2.1,2.2,1.7,5.8,1.4,8.5c5.5-3.8,15-12.5,21-18.2c1.4-2,12.8-18,18.6-23.6
		c2-1.9,2.6-3.3,2.6-3.9c0-0.2-0.1-0.3-0.2-0.4c-0.6-0.3-0.9-0.7-1.1-1.4c-0.2-0.6,0-1.3,0.4-1.8c0.1-0.1,5.7-9.4,7.3-14.8
		c0.5-1.7,0.5-2.5,0.4-2.8c-0.7-0.2-1.3-0.6-1.6-1.3c-0.4-0.8-0.3-1.8,0.3-2.5c0,0,2.6-3.2,3.3-6.4c0.6-2.5-0.5-6-1-7.1
		c-0.3-0.6-0.2-1.4,0.1-2c0.3-0.6,0.8-1,1.4-1.2c0.2-0.1,1.4-0.9,2.2-4.2c0.4-1.5,0.3-2.2,0.2-2.4c-0.8-0.1-1.4-0.6-1.8-1.3
		c-0.4-0.8-0.3-1.8,0.2-2.5c0,0,1.9-2.5,2.4-5.6c0.4-2.5-0.9-3.9-0.9-4c-0.5-0.5-0.7-1.2-0.6-1.8c0.1-0.7,0.4-1.3,0.9-1.7
		c0.5-0.4,1.8-1.7,2-3.2c0.2-2.2-0.5-3.8-0.5-3.8c-0.4-1.1-0.1-2.3,0.9-2.9c1.9-1.2,2.2-2,2.2-2.3l0.1-0.1c-1.5-1.7-3.7-2.6-6.3-2.6
		c-5.6,0-18.3,4.1-40.5,30.8c-27.7,33.4-31.1,51.5-31.2,51.7c-0.1,0.6-0.4,1.1-0.9,1.5c-0.2,3.2-1.6,7.7-6.3,10.2
		c-0.4,5.4-1.2,8.2-1.9,9.6c1.8,1,3.2,2.5,3.2,4.6c0,0.6,0,1.8-1.1,3.2c-0.5,0.6-1.1,1.1-1.9,1.5c7.3,1.3,18.2,2.9,22,2.7
		C242.2,164.3,242.4,164.3,242.6,164.3z M218.3,157.4L218.3,157.4L218.3,157.4z M218.3,157.4L218.3,157.4L218.3,157.4z M218.3,157.4
		L218.3,157.4L218.3,157.4z M297.4,107.4L297.4,107.4L297.4,107.4z M299.4,86.9L299.4,86.9L299.4,86.9z M299.6,86.8
		C299.6,86.9,299.6,86.9,299.6,86.8C299.6,86.9,299.6,86.9,299.6,86.8z M299.6,86.8L299.6,86.8L299.6,86.8z M302,80.3h0.1
		C302.1,80.3,302.1,80.3,302,80.3z"/>
</g>
<path class="st4" d="M295.4,47c0,0-23,15.8-27,22s-15.3,18-16.7,20.9c-1.3,2.9-20.9,33.6-22.2,37.4c-1.3,3.7-6.7,12.5-6.7,12.5
	l-3.7,4.8"/>
<path class="st4" d="M293.2,48.5c0,0-15.1,15.6-17.1,16.9s-3.6,4-3.6,4v1.1"/>
<path class="st4" d="M258.1,81.8c0,0,16.9-12.8,18.5-13.4c1.6-0.7,2.9,0,2.9,0s6.4-6.4,10.4-8s12.9-8.3,15.8-4.9"/>
<path class="st4" d="M303.5,65.3c0,0-2.7-3.1-6.2,0c-3.6,3.1-16.7,12.7-16.7,12.7l-9.3,6.7"/>
<path class="st4" d="M234,119.2c0,0,20.4-23,23.3-26.5c2.9-3.6,8-9.6,12.2-8s0,4.9,0,4.9l-6,11.6c0,0-12,9.1-12.9,12.1
	s-5.8,12.4-8.2,14.2s-8.7,8-10,11.3s-5.6,7.4-6.8,7.7c-1.2,0.3-6.2,3.6-6.2,3.6"/>
<path class="st4" d="M227.3,165.3c0,0,12.9-17.4,20.4-20.6c7.6-3.2,14.2-16.5,13.8-18.5c-0.4-2-1.8-8.7,1.8-11.7s8-8.4,8-8.4
	s-4.2-4.3,0-8.3s13.3-14.3,17.3-15.9s9.3-6.5,13.6-3.9"/>
<line class="st4" x1="263.5" y1="101.1" x2="271.3" y2="97.7"/>
<path class="st4" d="M271.3,106c0,0,2,1.3,5.6-1s6.7-7.2,10.6-8.9c3.9-1.6,9-4.2,9.7-4.9c0.7-0.7,3.1-2.2,3.1-2.2"/>
<path class="st4" d="M242.4,127.3c0,0,6.2,1.8,1.6,11.3c-4.7,9.5-11.8,18.5-11.8,18.5l-1.9,4.3"/>
<path class="st4" d="M297.5,105.1c0,0-9.4,1.8-14.6,7.2s-11.5,9.7-11.5,9.7c-2.3,0.6-10.2,2.2-10.2,2.2"/>
<path class="st4" d="M271.4,122c0,0-2.3,3.4-1.2,7.1s4.2,4.1,4.2,4.1"/>
<path class="st4" d="M291.3,126.1c0,0-0.7-1.9-6.4,1.2c-5.8,3.1-12.7,8.1-12.7,8.1s2.8,3-2.3,7.3s-10.8,12.1-10.8,12.1L240.2,166"/>
<path class="st4" d="M259.1,154.8c0,0,6.9-2,9.3,0.4s2.4,2.4,2.4,2.4"/>
<path class="st2" d="M118.7,184.1c0,0,3.5,5.3,4.4,8.1s4.4,8.4,4.4,8.4l3.6,1.8"/>
<path class="st2" d="M131.1,185.7c0,0,1.1,14.2,1.1,19.6s1.3,11.3,1.3,11.3l2.2,3.8l7.8,4"/>
<path class="st7" d="M128.4,221.7c0,0,3.1-0.9,4.9,0s4,2.7,4,2.7l3.1,0.9"/>
<path class="st7" d="M124.9,223.3c0,0,5.3,0.4,6.2,1.1c0.9,0.7,3.3,2.2,3.3,2.2"/>
<path class="st7" d="M124.7,241l-2.5-7.8h2.5c0,0,4-6.1,6.4-6.7s8.8,0,8.8,0l11.9-0.3l11.2-5l-1.4,4v6.7l4.9,9.1l-1.1,3.6l-23,9.8"
	/>
<line class="st7" x1="138.8" y1="230.6" x2="139.9" y2="243.9"/>
<path class="st7" d="M131.1,233c0,0-2.4,7.3-2.7,13.1"/>
<polyline class="st4" points="166.4,220.4 168.4,226.6 168.4,230.6 169.9,235.5 169.9,240.3 166.4,243.9 "/>
<path class="st5" d="M168.2,221.7h1.8c0,0,4-2.2,7.1-2.7s8.7,0.2,11.6,0s7.5-0.2,7.5-0.2l6.9,4.4c0,0,7.3,1.8,9.6,3.3
	c2.2,1.6,5.3,2.2,5.6,3.1c0.2,0.9-2,3.3-8.4,3.3s-12-2.4-12-2.4l6.2,6.7c0,0,5.6,3.1,5.8,4.7s2,4.2,2,4.2l0.7,2c0,0-8-0.4-10.4-2
	s-12-8.8-13.3-8.3s-1.8,3-5.6,2.8s-5.1-3.1-7.6-2.8c-2.4,0.3-5.6,0-5.6,0v-4.3l-1.6-2.9v-4l-2-4.9L168.2,221.7L168.2,221.7z"/>
<path class="st2" d="M162,250.6c0,0-1.4-0.3-1.5-0.5c-0.1-0.3,0.3-2.4,0.3-2.4l1.6-0.9"/>
<path class="st2" d="M169.9,261.5c0,0,1.1-7.8,1.9-9s1.5-4.5,2.9-5.5"/>
<path class="st15" d="M179,260.8h12.7c0,0,3.4-2.3,3.3-6.4s-3-6.2-3-6.2h-2.4c0,0-5.2,1.4-6,2.4s-2.5,4.5-2.5,4.5
	S179.3,258.6,179,260.8z"/>
<path class="st16" d="M179,260.8h12.7c0,0,1.9-0.2,1.9,1.4s-1.9,1.3-1.9,1.3h-13.1l0.2-1.3L179,260.8z"/>
<polyline class="st16" points="179.3,263.5 182.2,271.8 189.2,271.8 191.6,263.5 "/>
<path class="st16" d="M174.2,250.9l-0.9-0.4l-0.4-0.3l-0.5,2l1.4,0.8C173.7,253,173.4,251.7,174.2,250.9"/>
<line class="st2" x1="182.7" y1="264.5" x2="184.1" y2="269.9"/>
<line class="st2" x1="186.9" y1="265.1" x2="186.9" y2="268.4"/>
<path class="st2" d="M245.6,178.4c0,0-2.5,3.7-2.5,4.7s-2.9,7-2.9,7"/>
<path class="st2" d="M239.1,190.9c0,0,2.1-2.7,5-0.9"/>
<path class="st2" d="M227.9,178.4c0,0-4.3,23.7-4.3,29.5s1.3,12.5,1.3,12.5"/>
<path class="st2" d="M202,222.6c0,0,19.4-2.8,25.9-1.3s7.7,2,7.7,2"/>
<path class="st2" d="M231.2,222.1c0,0,4.7,3.3,6.8,7.3c2.1,4,3.5,3.7,3.5,3.7"/>
<path class="st2" d="M228.8,224.4c0,0,1.9,7.2,1.5,10.3"/>
<path class="st2" d="M227.3,221.2c0,0,1.9-6.8,14.3-5.9"/>
<path class="st2" d="M202.3,161.4l8.6,5.7l-6.2,5.8l1.3,3.3c0,0,2,3.3,5.9,3.3s3.3,2.8,3.3,2.8s-4.9,19.4-8,26.2
	c-3,6.8-8.4,11.9-8.4,11.9"/>
<path class="st2" d="M175.6,170.3c0.6,1.7-5.2,13.9-5.2,13.9s-1.5-1.2-3.2-3.6c-1.7-2.4-3.7-2.2-3.7-2.2"/>
<path class="st2" d="M181,168.8c1,0.4,10.1,9.1,10.1,9.1l5.1-6.1l1-0.4"/>
<path class="st2" d="M173.3,177.9l2.4,6.2c0,0,2.1-1.9,5.2-1.9s3.9,1.5,3.9,1.5l3.3-8.8"/>
<path class="st17" d="M184.3,183.3l3.7,14.6c0,0,5,16.5,5,19.3l-0.7,1.7l-15.2,0.2l-3.3-5.6c-0.3-2.5,1.9-12.3,1.9-12.3v-17
	c0,0,2-1.2,4.6-1.8S184.3,183.3,184.3,183.3"/>
<path class="st2" d="M191.4,190.2c0,0,5-2.8,5.8-2.8"/>
<path class="st2" d="M189.1,194c0,0,4.5-2,6.7-1.7"/>
<path class="st2" d="M169.6,190.1c0,0,1.9-0.9,3.6-0.6"/>
<line class="st2" x1="169.6" y1="193.1" x2="173" y2="193.1"/>
<path class="st2" d="M183.3,285.4"/>
<path class="st2" d="M178.5,169.6"/>
<path class="st17" d="M181.7,169.2l-3.9,0.8l-1.8,0.2l-0.4,0.5l-1.9,6c0,0-0.6,0.7,0,2.3s1.7,4.3,1.7,4.3s0.1,0.8,0.8,0.4
	c0.6-0.4,3.3-2.1,6.1-1.4s2.4,1.8,2.6,1s3-8,3-8s0.3-0.2-0.4-0.9C186.7,173.7,181.7,169.2,181.7,169.2z"/>
<g>
	<path class="st18" d="M133.6,120c-0.3,3.7-9.8-3.3-13.3-5.5c-5-3.2-15-6.4-16.1-13c-1.1-6.6,1.8-16,11.6-24.6s25.4-0.5,25.4-0.5
		s-2.1-8.5,3-9.9c0,0-5-2.9-1.6-8.3s7.4-8.5,11.7-13.3c4.3-4.8,9.5-8.2,11.9-8c2.4,0.3,1.5,3.1,6.3,2.1c3.9-0.8,2.8-7,13.3-7.6
		c1.7-0.1,2.3,2.3,2.6,4.3c0,0,0.9,0.7,0.6,1.4c-0.3,0.7,1.3,3.8,1.3,3.8L203.6,63c0,0,7.8-6.8,12.2-7c4.9-0.2,25.5,9.6,28.9,18.7
		c3.4,9-24.7,30.2-39.8,33.3c-9.8,2-20.4,7.9-42.7-4.6c0,0-11.4-6.9-22.2-0.3C129.2,109.7,133.6,120,133.6,120z"/>
	<path class="st4" d="M141.1,76.3c0,0,5.6,1.7,11.8,8.9s14.5,20.6,25.5,23c11.1,2.4,29-2.4,42.2-8.7"/>
	<path class="st19" d="M203.5,63.1l2.6,5c0,0-2.6,4.7-4.2,5.3s-7.1,2.1-7.1,2.1c-5-0.1-14,5.8-16.1,6.2c-2.2,0.4-11.2-1-16.4-2.4
		c-5.2-1.3-12.4,2.9-12.4,2.9c2.7,1.6,11.9,13.2,11.9,13.2L163,96c4.2,0.6,16.2-0.6,16.2-0.6c2.5-0.6,11.3-0.2,17.4-2.1
		s12.6-6.5,13.6-10.1s-1.1-4.4-1.1-4.4s1.3-0.1,1.1-3.9s-3.9-6.9-3.9-6.9"/>
	<path class="st10" d="M203.5,63.1l2.6,5c0,0-2.6,4.7-4.2,5.3s-7.1,2.1-7.1,2.1c-5-0.1-14,5.8-16.1,6.2c-2.2,0.4-11.2-1-16.4-2.4
		c-5.2-1.3-12.4,2.9-12.4,2.9c2.7,1.6,11.9,13.2,11.9,13.2L163,96c4.2,0.6,16.2-0.6,16.2-0.6c2.5-0.6,11.3-0.2,17.4-2.1
		s12.6-6.5,13.6-10.1s-1.1-4.4-1.1-4.4s1.3-0.1,1.1-3.9s-3.9-6.9-3.9-6.9"/>
</g>
<line class="st20" x1="211.7" y1="246.1" x2="234.4" y2="247.3"/>
<g>
	<path class="st21" d="M162.1,250c-0.3,1.8,0.4,1.9,0.4,1.9c1.5,1.2,6.1,1.1,6-2.8c0-3-1.9-4.5-3.3-4.5c0,0-1.5,0.2-1.8,1.6"/>
	<path class="st8" d="M162.3,250c0,0.5-0.2,1.5,0.3,1.7c1.8,1.2,5.1,0.7,5.6-1.7c0.2-1.1,0-2.3-0.4-3.3c-0.6-1.4-2.3-2.5-3.5-1.5
		c-0.3,0.2-0.5,0.5-0.6,0.9c-0.1,0.3-0.6,0.2-0.5-0.1c0.2-1,1.1-1.6,2-1.7c2.1,0.1,3.3,2.1,3.5,4c0.7,3.8-3.4,5.6-6.3,3.8h0.1
		c-0.9-0.3-0.7-1.4-0.6-2.1C161.9,249.7,162.4,249.8,162.3,250L162.3,250z"/>
</g>
<path class="st16" d="M168.5,248.1c0,0,0.7,2-0.6,3l4.4,0.8c0,0,0.4-1,0.5-1.9L168.5,248.1z"/>
<g>
	<ellipse class="st19" cx="163.8" cy="248.5" rx="2.2" ry="2.4"/>
	<g>
		<path class="st22" d="M166.3,248.5c-0.1,3.4-4.8,3.4-4.8,0S166.2,245.1,166.3,248.5L166.3,248.5z M165.8,248.5c0-2.9-3.9-2.9-4,0
			C161.9,251.4,165.7,251.4,165.8,248.5L165.8,248.5z"/>
	</g>
</g>
<path class="st16" d="M179.3,255.1h1.8c0,0,1.8-2.1,1.6-3.2h-2.8"/>
<path class="st16" d="M174.5,249.8c0.7-1,1.7-1.5,2.8-1.3c1.7,0.3,2.8,2.3,2.5,4.5s-2,3.8-3.7,3.6c-0.9-0.1-1.7-0.8-2.1-1.8"/>
<ellipse class="st23" cx="175.6" cy="252.6" rx="1.9" ry="2.5"/>
<path class="st16" d="M162.4,246.7c0,0-1,0.9-0.8,1.8s0.7,1.7,0.7,1.7l-0.3,0.3l-1.5-0.5l0.3-2.4L162.4,246.7z"/>
<path class="st16" d="M183.2,285.4l-0.5-13.6h6.1l0.3,12.7"/>
</svg>
